<svg width="68" height="132" viewBox="0 0 68 132" fill="none" xmlns="http://www.w3.org/2000/svg">
<g clip-path="url(#clip0)">
<path d="M66.0928 31.3682H65.3643V11.4996C65.3643 8.44985 64.1477 5.525 61.9823 3.3685C59.8168 1.212 56.8798 0.000488281 53.8173 0.000488281H11.5475C8.48508 0.000488281 5.54806 1.212 3.38258 3.3685C1.2171 5.525 0.000545502 8.44985 0.000545502 11.4996V120.501C0.000545502 123.55 1.2171 126.475 3.38258 128.632C5.54806 130.788 8.48508 132 11.5475 132H53.8171C56.8796 132 59.8166 130.788 61.9821 128.632C64.1476 126.475 65.3641 123.55 65.3641 120.501V45.511H66.0926L66.0928 31.3682Z" fill="#06BEA6"/>
<path d="M54.283 2.9917H48.7654C49.0193 3.61125 49.1162 4.28348 49.0477 4.94914C48.9792 5.6148 48.7474 6.25347 48.3726 6.80887C47.9978 7.36426 47.4916 7.81934 46.8986 8.13399C46.3056 8.44864 45.644 8.61321 44.972 8.6132H20.7563C20.0845 8.61315 19.423 8.44855 18.83 8.13392C18.2371 7.81928 17.731 7.36426 17.3562 6.80894C16.9815 6.25363 16.7496 5.61505 16.6811 4.94948C16.6125 4.2839 16.7094 3.61175 16.9631 2.99224H11.8089C9.5218 2.99224 7.32839 3.89701 5.71118 5.50752C4.09397 7.11803 3.18544 9.30234 3.18544 11.5799V120.42C3.18544 122.698 4.09397 124.882 5.71118 126.493C7.32839 128.103 9.5218 129.008 11.8089 129.008H54.2814C56.5685 129.008 58.7619 128.103 60.3791 126.493C61.9963 124.882 62.9048 122.698 62.9048 120.42V11.5794C62.9048 9.30179 61.9963 7.11748 60.3791 5.50698C58.7619 3.89647 56.5685 2.9917 54.2814 2.9917H54.283Z" fill="white"/>
<path d="M57.5032 24.3926H8.58938V107.607H57.5032V24.3926Z" fill="#E6E6E6"/>
<path opacity="0.5" d="M33.1189 122.926C35.7342 122.926 37.8543 120.814 37.8543 118.21C37.8543 115.605 35.7342 113.494 33.1189 113.494C30.5036 113.494 28.3835 115.605 28.3835 118.21C28.3835 120.814 30.5036 122.926 33.1189 122.926Z" fill="#06BEA6"/>
<path d="M55.7546 116.515L55.2137 121.723L58.2791 121.364L58.6397 117.054L55.7546 116.515Z" fill="#FFB9B9"/>
<path d="M47.6404 77.0083C47.6404 77.0083 31.9522 92.0926 41.87 96.7617H44.9354C44.9354 96.7617 51.6073 85.8067 54.8533 85.9872L55.7548 96.4026L55.2139 117.413L59.181 117.593C59.181 117.593 61.5252 106.998 61.3449 101.072L65.4923 79.1632L47.6404 77.0083Z" fill="#2F2E41"/>
<path d="M42.7712 96.0433L44.9351 96.7615C44.9351 96.7615 53.4103 94.7862 53.9505 94.9659L55.6284 94.9543L55.5738 90.6558H48.3615L42.7712 96.0433Z" fill="#2F2E41"/>
<path d="M58.6397 120.645C58.6397 120.645 55.3938 119.209 54.8529 120.645C54.312 122.082 54.4923 126.212 54.4923 126.212C54.9249 127.041 55.0525 127.994 54.8529 128.906C54.4923 130.342 56.2956 131.061 58.6397 130.342C60.9839 129.624 60.9839 127.828 60.9839 127.828L58.6397 120.645Z" fill="#2F2E41"/>
<path d="M61.3445 90.2958C61.3445 90.2958 63.869 88.8591 63.6887 91.014C63.5391 92.4372 63.1743 93.8297 62.6067 95.1443C62.6067 95.1443 64.9509 101.25 62.6067 101.789C60.2625 102.327 58.4592 101.07 58.4592 100.172C58.4592 99.2744 61.3445 90.2958 61.3445 90.2958Z" fill="#2F2E41"/>
<path d="M53.4102 41.0926L53.771 47.9167L56.8365 50.6099L60.2627 45.7614V40.9131L53.4102 41.0926Z" fill="#9E6C6C" fill-opacity="0.99"/>
<path d="M55.7544 47.9167L53.6902 46.3892L52.3284 48.4554L46.1974 52.0466L49.8035 61.3845L49.9839 70.5429C49.9839 70.5429 43.3119 77.3668 47.2791 78.2648C51.2462 79.1627 65.3115 81.1379 66.0327 79.5219C66.7539 77.9058 65.1312 61.2051 65.1312 61.2051L65.6721 47.0186L60.2628 45.0708L55.7544 47.9167Z" fill="#BDBDBD"/>
<path d="M44.7547 59.2903C44.7547 59.2903 43.3121 69.4653 46.0171 69.4653C47.6235 69.4708 49.2157 69.1659 50.7054 68.5675L48.5416 63.0006L49.4431 59.2295L44.7547 59.2903Z" fill="#FFB9B9"/>
<path d="M48.9022 68.2089L50.8857 68.568C50.8857 68.568 56.6561 64.9768 57.0168 64.7969C57.3774 64.617 51.2464 61.5645 51.2464 61.5645L47.0989 63.1807L48.9022 68.2089Z" fill="#FFB9B9"/>
<path d="M51.2464 61.5644L48.6419 62.5792L49.4433 59.23L44.7549 59.29C44.7549 59.29 43.3123 69.4651 46.0173 69.4651C47.6237 69.4706 49.2158 69.1657 50.7056 68.5673L50.692 68.5321L50.8859 68.5673C50.8859 68.5673 56.6563 64.9761 57.017 64.7962C57.3776 64.6163 51.2464 61.5644 51.2464 61.5644Z" fill="#805353"/>
<path d="M57.5819 44.4978C60.4257 44.4978 62.731 42.202 62.731 39.37C62.731 36.538 60.4257 34.2422 57.5819 34.2422C54.7381 34.2422 52.4328 36.538 52.4328 39.37C52.4328 42.202 54.7381 44.4978 57.5819 44.4978Z" fill="#9E6C6C" fill-opacity="0.99"/>
<path d="M53.0294 33.5852L52.0233 33.1842C52.0233 33.1842 54.1269 30.8778 57.0535 31.0784L56.2303 30.1759C56.2303 30.1759 58.2425 29.3737 60.0716 31.4794C61.0332 32.5858 62.1457 33.8875 62.84 35.3532H63.9174L63.4678 36.3392L65.0412 37.3257L63.4257 37.1485C63.5787 37.9997 63.5263 38.875 63.2729 39.7022L63.3162 40.4821C63.3162 40.4821 61.4438 37.597 61.4438 37.196V38.1988C61.4438 38.1988 60.4377 37.2963 60.4377 36.6947L59.8889 37.3966L59.6137 36.2918L56.2298 37.3948L56.7785 36.4922L54.6749 36.7931L55.4982 35.6902C55.4982 35.6902 53.1203 36.9937 53.0287 38.0969C52.9371 39.2 51.7483 40.6036 51.7483 40.6036L51.1995 39.6008C51.1995 39.6008 50.3771 35.0893 53.0294 33.5852Z" fill="#2F2E41"/>
<path d="M62.0658 56.1772C61.1557 57.2969 60.6478 58.6875 60.6231 60.1279L51.0659 59.7687C51.0659 59.7687 48.5414 59.4096 48.5414 61.2054V63.001C48.5414 63.001 49.8037 62.4623 50.525 63.001C51.2462 63.5397 59.0002 68.2088 62.787 66.413C66.5738 64.6172 67.4753 57.6138 67.4753 57.6138C67.4753 57.6138 64.0493 54.7405 62.0658 56.1772Z" fill="#9E6C6C" fill-opacity="0.99"/>
<path d="M64.2305 47.1986L65.6732 47.019C65.6732 47.019 68.5583 47.3782 68.1977 52.9451C67.8371 58.512 67.6568 58.8711 67.6568 58.8711C67.6568 58.8711 63.8699 55.4591 61.1651 57.0755L64.2305 47.1986Z" fill="#5C5C5C"/>
<path d="M46.9186 52.0479H46.1974C45.2629 53.2234 44.7545 54.6788 44.7548 56.1781C44.7382 57.7839 44.5263 59.3818 44.1237 60.9368L49.8039 59.9492L46.9186 52.0479Z" fill="#5C5C5C"/>
<path d="M40 64C40 62.4087 39.3679 60.8826 38.2426 59.7574C37.1174 58.6321 35.5913 58 34 58C32.4087 58 30.8826 58.6321 29.7574 59.7574C28.6321 60.8826 28 62.4087 28 64C28 71 25 73 25 73H43C43 73 40 71 40 64Z" stroke="#06BEA6" stroke-width="2" stroke-linecap="round" stroke-linejoin="round"/>
<path d="M35.73 77C35.5542 77.3031 35.3018 77.5547 34.9982 77.7295C34.6946 77.9044 34.3504 77.9965 34 77.9965C33.6496 77.9965 33.3054 77.9044 33.0018 77.7295C32.6982 77.5547 32.4458 77.3031 32.27 77" stroke="#06BEA6" stroke-width="2" stroke-linecap="round" stroke-linejoin="round"/>
</g>
<defs>
<clipPath id="clip0">
<rect width="68" height="132" fill="white"/>
</clipPath>
</defs>
</svg>
