<svg width="226" height="151" viewBox="0 0 226 151" fill="none" xmlns="http://www.w3.org/2000/svg">
<g clip-path="url(#clip0)">
<path opacity="0.1" d="M131.733 29.9912C118.437 29.5187 105.774 25.2272 93.6903 20.5413C81.6066 15.8553 69.6216 10.6414 56.6443 8.15359C48.2975 6.55326 38.751 6.32728 32.0272 10.8016C25.5539 15.1157 23.4626 22.5422 22.3389 29.4407C21.4925 34.6299 20.9954 40.0904 23.3126 44.9489C24.9233 48.3221 27.7788 51.1571 29.7551 54.3886C36.6309 65.6299 31.7704 79.4926 24.3213 90.4689C20.829 95.6192 16.7716 100.535 14.0743 106.012C11.3769 111.489 10.1299 117.773 12.4904 123.365C14.8282 128.912 20.4016 133.07 26.4394 135.997C38.7017 141.943 53.1458 143.646 67.2406 144.609C98.4317 146.743 129.787 145.819 161.06 144.895C172.634 144.552 184.258 144.204 195.643 142.415C201.966 141.421 208.493 139.843 213.084 136.036C218.911 131.202 220.355 123.016 216.449 116.956C209.9 106.789 191.797 104.264 187.214 93.3512C184.695 87.3463 187.282 80.6554 190.945 75.0861C198.801 63.138 211.967 52.6547 212.659 38.9954C213.136 29.6153 206.806 20.2208 197.019 15.7814C186.762 11.1283 172.536 11.7138 164.972 19.4155C157.169 27.337 143.473 30.3877 131.733 29.9912Z" fill="#06BEA6"/>
<path d="M35.1826 150.374C43.4889 150.374 50.2225 149.079 50.2225 147.481C50.2225 145.884 43.4889 144.589 35.1826 144.589C26.8764 144.589 20.1428 145.884 20.1428 147.481C20.1428 149.079 26.8764 150.374 35.1826 150.374Z" fill="#06BEA6"/>
<path d="M34.9299 148.545C35.8966 148.545 36.6802 147.519 36.6802 146.253C36.6802 144.986 35.8966 143.96 34.9299 143.96C33.9633 143.96 33.1796 144.986 33.1796 146.253C33.1796 147.519 33.9633 148.545 34.9299 148.545Z" fill="#3F3D56"/>
<path d="M34.9299 145.743C35.8966 145.743 36.6802 144.717 36.6802 143.45C36.6802 142.184 35.8966 141.158 34.9299 141.158C33.9633 141.158 33.1796 142.184 33.1796 143.45C33.1796 144.717 33.9633 145.743 34.9299 145.743Z" fill="#3F3D56"/>
<path d="M34.9299 142.941C35.8966 142.941 36.6802 141.915 36.6802 140.648C36.6802 139.382 35.8966 138.356 34.9299 138.356C33.9633 138.356 33.1796 139.382 33.1796 140.648C33.1796 141.915 33.9633 142.941 34.9299 142.941Z" fill="#3F3D56"/>
<path d="M34.9299 140.141C35.8966 140.141 36.6802 139.114 36.6802 137.848C36.6802 136.582 35.8966 135.555 34.9299 135.555C33.9633 135.555 33.1796 136.582 33.1796 137.848C33.1796 139.114 33.9633 140.141 34.9299 140.141Z" fill="#3F3D56"/>
<path d="M34.9299 137.339C35.8966 137.339 36.6802 136.312 36.6802 135.046C36.6802 133.78 35.8966 132.754 34.9299 132.754C33.9633 132.754 33.1796 133.78 33.1796 135.046C33.1796 136.312 33.9633 137.339 34.9299 137.339Z" fill="#3F3D56"/>
<path d="M34.9299 134.537C35.8966 134.537 36.6802 133.51 36.6802 132.244C36.6802 130.978 35.8966 129.951 34.9299 129.951C33.9633 129.951 33.1796 130.978 33.1796 132.244C33.1796 133.51 33.9633 134.537 34.9299 134.537Z" fill="#3F3D56"/>
<path d="M34.9299 131.735C35.8966 131.735 36.6802 130.708 36.6802 129.442C36.6802 128.176 35.8966 127.149 34.9299 127.149C33.9633 127.149 33.1796 128.176 33.1796 129.442C33.1796 130.708 33.9633 131.735 34.9299 131.735Z" fill="#3F3D56"/>
<path d="M41.4854 110.269C41.7252 109.965 41.9435 109.644 42.1386 109.309L37.5369 108.553L42.5125 108.59C42.9902 107.552 43.2508 106.427 43.2784 105.284C43.3059 104.141 43.0999 103.005 42.6728 101.945L35.9982 105.408L42.1612 100.889C41.5839 99.893 40.8079 99.0268 39.8814 98.344C38.9549 97.6612 37.8978 97.1763 36.7758 96.9196C35.6539 96.6628 34.4911 96.6398 33.3599 96.8518C32.2286 97.0638 31.1531 97.5063 30.2003 98.1519C29.2474 98.7974 28.4376 99.6322 27.8212 100.604C27.2049 101.576 26.7951 102.665 26.6175 103.802C26.4399 104.939 26.4982 106.1 26.7888 107.214C27.0795 108.328 27.5961 109.37 28.3068 110.275C27.934 110.75 27.6131 111.263 27.3494 111.805L33.3235 114.908L26.955 112.771C26.507 114.093 26.396 115.505 26.632 116.881C26.8681 118.256 27.4437 119.551 28.3068 120.647C27.3335 121.885 26.7279 123.371 26.5595 124.936C26.391 126.501 26.6663 128.082 27.354 129.498C28.0417 130.914 29.114 132.108 30.4483 132.943C31.7826 133.778 33.325 134.221 34.8991 134.221C36.4733 134.221 38.0157 133.778 39.35 132.943C40.6843 132.108 41.7566 130.914 42.4443 129.498C43.132 128.082 43.4073 126.501 43.2388 124.936C43.0703 123.371 42.4648 121.885 41.4915 120.647C42.6546 119.169 43.287 117.342 43.287 115.461C43.287 113.58 42.6546 111.753 41.4915 110.275L41.4854 110.269Z" fill="#06BEA6"/>
<path opacity="0.1" d="M26.5133 115.452C26.5108 117.333 27.1435 119.16 28.3088 120.637C27.3355 121.874 26.73 123.36 26.5615 124.925C26.393 126.491 26.6684 128.072 27.3561 129.488C28.0438 130.904 29.1161 132.097 30.4503 132.933C31.7846 133.768 33.327 134.211 34.9012 134.211C36.4754 134.211 38.0178 133.768 39.352 132.933C40.6863 132.097 41.7586 130.904 42.4463 129.488C43.134 128.072 43.4094 126.491 43.2409 124.925C43.0724 123.36 42.4669 121.874 41.4936 120.637C42.6111 119.213 26.5133 114.513 26.5133 115.452Z" fill="black"/>
<path d="M108.048 112.576C108.175 114.219 108.808 115.92 110.139 116.89C111.471 117.86 113.589 117.841 114.605 116.539C114.947 116.05 115.198 115.503 115.347 114.926C116.204 112.218 116.812 109.256 115.873 106.575C113.755 106.437 111.3 105.441 109.71 107.191C108.426 108.617 107.9 110.676 108.048 112.576Z" fill="#3F3D56"/>
<path d="M117.88 96.0118C117.599 98.401 117.12 100.78 117.169 103.186C117.188 104.114 117.286 105.034 117.288 105.967C117.292 108.389 116.654 110.768 115.44 112.864C115.312 113.11 115.14 113.331 114.934 113.517C114.447 113.911 113.714 113.878 113.167 113.576C112.634 113.244 112.2 112.774 111.912 112.214C110.382 109.593 110.339 106.407 109.733 103.434C109.268 101.16 108.455 98.9556 108.161 96.6548C107.97 95.1736 107.999 93.6637 107.695 92.201C107.602 91.7593 107.343 91.0957 107.173 90.4445C107.017 89.8631 106.93 89.292 107.091 88.8997C107.417 88.0964 108.488 88.4087 109.184 88.458C111.637 88.6398 114.099 88.6336 116.551 88.4395C116.793 88.421 117.069 88.4107 117.239 88.5833C117.314 88.6704 117.369 88.7718 117.403 88.8812C117.599 89.4153 117.748 89.9651 117.849 90.5246C118.188 92.314 118.094 94.1896 117.88 96.0118Z" fill="#FABDBD"/>
<g opacity="0.1">
<path opacity="0.1" d="M116.935 88.4395C116.809 88.4261 116.681 88.4261 116.555 88.4395C115.38 88.534 114.203 88.5812 113.028 88.5874C114.33 88.5901 115.633 88.5408 116.935 88.4395Z" fill="black"/>
<path opacity="0.1" d="M113.582 113.576C113.049 113.244 112.615 112.773 112.327 112.214C110.797 109.593 110.754 106.407 110.148 103.434C109.683 101.16 108.87 98.9556 108.576 96.6547C108.385 95.1735 108.414 93.6636 108.11 92.2009C108.017 91.7592 107.758 91.0957 107.588 90.4444C107.432 89.8631 107.345 89.292 107.506 88.8996C107.574 88.7387 107.688 88.6019 107.835 88.5067C107.981 88.4115 108.153 88.3623 108.327 88.3655C107.808 88.3305 107.3 88.3922 107.095 88.8996C106.935 89.292 107.021 89.8631 107.177 90.4444C107.347 91.0957 107.606 91.7592 107.699 92.2009C108.003 93.6636 107.974 95.1735 108.165 96.6547C108.459 98.9576 109.272 101.162 109.737 103.434C110.343 106.407 110.386 109.597 111.916 112.214C112.204 112.773 112.638 113.244 113.172 113.576C113.5 113.758 113.875 113.834 114.248 113.794C114.015 113.763 113.789 113.69 113.582 113.576Z" fill="black"/>
</g>
<path d="M125.648 108.611C124.415 111.076 124.62 114.569 124.62 114.569C124.826 122.786 121.539 140.042 121.539 140.042H118.663C118.663 140.042 118.252 120.937 118.663 119.294C119.074 117.65 118.457 111.898 117.841 103.886C117.383 97.9284 118.63 92.5296 119.3 90.161C119.53 89.3392 119.69 88.8893 119.69 88.8893C119.69 88.8893 124.415 81.9046 127.086 85.1915C127.702 85.9557 128.029 87.4985 128.142 89.446C128.507 95.872 126.593 106.719 125.648 108.611Z" fill="#FABDBD"/>
<path opacity="0.1" d="M128.141 89.446C128.029 87.4985 127.706 85.9536 127.086 85.1915C126.49 84.4601 125.791 84.2383 125.068 84.3348C125.629 84.4278 126.131 84.735 126.469 85.1915C127.086 85.9557 127.412 87.4985 127.525 89.446C127.891 95.872 125.976 106.719 125.031 108.611C123.799 111.076 124.004 114.569 124.004 114.569C124.209 122.786 120.923 140.042 120.923 140.042H121.539C121.539 140.042 124.826 122.786 124.62 114.569C124.62 114.569 124.415 111.076 125.648 108.611C126.593 106.719 128.507 95.872 128.141 89.446Z" fill="black"/>
<path d="M117.167 139.292C116.938 139.473 116.739 139.689 116.58 139.933C116.212 140.628 116.734 141.458 117.293 142.01C117.851 142.563 118.525 143.155 118.525 143.941C118.525 144.574 118.046 145.117 117.51 145.453C117.223 145.634 116.861 145.864 116.921 146.205C116.942 146.292 116.979 146.373 117.03 146.446C117.49 147.15 118.305 147.563 119.131 147.719C119.957 147.876 120.81 147.808 121.65 147.74C121.776 147.744 121.899 147.702 121.995 147.621C122.056 147.539 122.088 147.439 122.087 147.337C122.128 146.902 122.102 146.442 122.293 146.049C122.56 145.513 123.174 145.24 123.525 144.759C124.018 144.102 123.951 143.187 123.764 142.388C123.353 140.648 122.439 138.664 121.066 137.458C119.476 136.073 118.229 138.292 117.167 139.292Z" fill="#3F3D56"/>
<path d="M123.392 35.7435C124.538 34.0302 124.24 31.6348 123.069 29.9297C121.898 28.2246 120.017 27.1523 118.075 26.46C115.458 25.5273 112.572 25.2089 109.883 25.9094C107.742 26.4661 105.819 27.6309 103.802 28.5307C100.233 30.1232 96.352 30.8953 92.4453 30.7905C88.1086 30.6693 83.3569 29.5579 79.7186 31.9286C73.0585 36.2612 76.0208 48.0531 69.7202 52.8829C68.0212 54.1853 65.8827 54.7544 63.9927 55.759C62.1027 56.7635 60.3113 58.5118 60.3565 60.6524C60.377 61.6796 60.829 62.6595 61.3837 63.5285C63.7462 67.2735 68.163 69.5908 72.586 69.5477C77.009 69.5045 81.3251 67.1523 83.8746 63.5326C84.5135 62.6266 85.0764 61.6179 86.0029 61.014C87.8518 59.8019 90.2882 60.6503 92.4946 60.8311C97.4065 61.2317 102.32 57.5442 103.298 52.7062C103.709 50.6416 103.637 48.1743 105.299 46.878C106.641 45.8324 108.529 46.0563 110.23 45.8776C113.34 45.555 115.795 43.6178 117.484 41.0869C118.258 39.9262 118.348 38.5395 119.404 37.6253C120.542 36.6207 122.303 37.3623 123.392 35.7435Z" fill="#3F3D56"/>
<g opacity="0.1">
<path opacity="0.1" d="M88.3366 31.1868C90.1381 31.2362 91.9398 31.0985 93.7128 30.7759C93.2239 30.7903 92.7309 30.7903 92.2399 30.7759C88.8358 30.6814 85.177 29.9788 82.001 30.8252C84.0965 30.8457 86.2638 31.1292 88.3366 31.1868Z" fill="black"/>
<path opacity="0.1" d="M81.8901 61.4226C80.9636 62.0266 80.4007 63.0353 79.7618 63.9413C77.798 66.6977 74.928 68.6762 71.6533 69.5311C71.8937 69.5414 72.134 69.5476 72.3764 69.5455C76.8035 69.5024 81.1156 67.1501 83.665 63.5304C84.3039 62.6244 84.8668 61.6157 85.7933 61.0118L85.9536 60.9132C84.5032 60.7139 83.0795 60.644 81.8901 61.4226Z" fill="black"/>
<path opacity="0.1" d="M122.862 29.9234C121.693 28.2265 119.809 27.1459 117.868 26.4536C115.251 25.5209 112.364 25.2025 109.675 25.903C109.613 25.9174 109.554 25.9359 109.494 25.9523C111.021 26.0375 112.527 26.3448 113.965 26.8645C115.906 27.5568 117.79 28.6374 118.959 30.3343C120.128 32.0311 120.427 34.4429 119.281 36.148C118.192 37.773 116.432 37.0314 115.279 38.0319C114.223 38.946 114.133 40.3327 113.358 41.4934C111.906 43.6649 109.885 45.3967 107.368 46.0541C108.233 45.9513 109.145 45.9637 110.008 45.8733C113.118 45.5507 115.573 43.6135 117.262 41.0826C118.036 39.9219 118.127 38.5352 119.183 37.621C120.335 36.6205 122.096 37.3621 123.184 35.7372C124.333 34.0238 124.035 31.6203 122.862 29.9234Z" fill="black"/>
<path opacity="0.1" d="M106.107 46.2842C104.416 46.4608 102.528 46.239 101.176 47.2846C99.5143 48.5809 99.5944 51.0482 99.1753 53.1128C98.4542 56.7223 95.5247 59.699 92.0468 60.8063L92.2912 60.8289C97.2031 61.2295 102.117 57.542 103.095 52.704C103.506 50.6394 103.434 48.1721 105.096 46.8758C105.478 46.5903 105.911 46.3811 106.372 46.2595C106.279 46.2616 106.195 46.276 106.107 46.2842Z" fill="black"/>
</g>
<path d="M155.744 28.389C155.744 28.389 150.813 38.2499 149.17 41.9477C147.526 45.6455 132.53 51.1922 130.475 51.3977C129.924 51.4732 129.411 51.7205 129.008 52.1044C127.848 53.1315 127.188 54.89 127.188 54.89C127.188 54.89 128.01 60.4368 126.983 69.6813C126.962 69.86 126.944 70.0387 126.927 70.2113C126.032 79.008 127.907 81.0829 127.907 81.0829C127.907 81.0829 107.98 88.6839 108.597 78.8231C108.79 75.719 108.761 73.451 108.57 71.5548C108.361 69.6137 107.966 67.6971 107.391 65.8315C106.904 64.1284 106.322 62.261 105.72 59.7177C105.431 58.4488 105.049 57.2026 104.578 55.9891C104.564 55.9521 104.549 55.9152 104.537 55.8802C103.51 53.3308 102.483 52.507 101.895 52.2399C101.34 51.9986 100.812 51.7013 100.318 51.3525C98.4193 49.9822 94.3455 46.911 90.7176 43.283C85.7872 38.3526 80.8568 26.6429 80.8568 26.6429C80.8568 26.6429 79.4187 19.8635 82.7057 14.3168C85.9926 8.7701 84.5546 25.2048 84.5546 25.2048C84.5546 25.2048 90.5122 33.2168 91.9502 36.9146C92.6898 38.8169 93.8648 39.7906 94.8263 40.296C96.4147 41.1229 97.9355 42.0735 99.3746 43.1392C100.347 43.8742 101.369 44.5414 102.433 45.136C104.73 46.3686 107.481 47.7594 109.774 48.1251C110.132 48.1842 110.494 48.2151 110.856 48.2175C111.028 48.223 111.199 48.1888 111.356 48.1176C111.513 48.0463 111.651 47.9399 111.76 47.8067C112.376 47.0815 112.362 45.5202 112.22 44.2362C112.145 43.5711 112.032 42.9106 111.883 42.2579C111.883 42.2579 118.56 38.0465 118.355 43.1824C118.323 43.7499 118.375 44.319 118.511 44.871C118.62 45.3777 118.862 45.8463 119.212 46.2289C119.561 46.6115 120.007 46.8944 120.501 47.0486C121.303 47.2838 122.151 47.3113 122.967 47.1287C123.221 47.0853 123.466 47.0014 123.694 46.8802C124.31 46.4693 130.473 44.6204 132.322 44.415C134.171 44.2095 143.416 39.69 143.416 39.69L153.482 25.7205C153.482 25.7205 153.276 17.5031 157.385 14.2162C161.494 10.9292 155.744 28.389 155.744 28.389Z" fill="#FABDBD"/>
<g opacity="0.1">
<path opacity="0.1" d="M126.927 68.9784C126.748 70.6292 126.669 72.2895 126.691 73.9499C126.712 72.8652 126.784 71.6264 126.927 70.211C126.944 70.0384 126.962 69.8597 126.983 69.681C127.342 66.5172 127.514 63.3349 127.496 60.1509C127.465 62.9236 127.293 65.6929 126.983 68.4484C126.971 68.6271 126.944 68.8058 126.927 68.9784Z" fill="black"/>
<path opacity="0.1" d="M112.097 42.1262C111.96 42.2063 111.892 42.2556 111.892 42.2556C112.091 43.1344 112.223 44.0273 112.286 44.9263C112.328 43.9888 112.264 43.0496 112.097 42.1262Z" fill="black"/>
<path opacity="0.1" d="M84.6512 24.0892C84.7518 22.6511 84.9018 20.0729 84.873 17.7803C84.8381 20.8454 84.5649 23.9721 84.5649 23.9721L84.6512 24.0892Z" fill="black"/>
<path opacity="0.1" d="M108.611 78.5825C108.611 78.6626 108.611 78.7428 108.597 78.8229C107.98 88.6837 127.907 81.0827 127.907 81.0827C127.674 80.7679 127.498 80.4147 127.388 80.039C124.386 81.1073 109.303 86.0747 108.611 78.5825Z" fill="black"/>
<path opacity="0.1" d="M155.744 27.1562C155.744 27.1562 150.813 37.017 149.17 40.7149C147.526 44.4127 132.53 49.9594 130.475 50.1648C129.924 50.2404 129.411 50.4876 129.008 50.8715C127.848 51.8987 127.188 53.6572 127.188 53.6572C127.188 53.6572 127.238 53.9921 127.297 54.6289C127.527 54.1009 128.119 52.8889 129.008 52.1041C129.411 51.7202 129.924 51.473 130.475 51.3974C132.53 51.192 147.526 45.6453 149.17 41.9475C150.813 38.2497 155.744 28.3888 155.744 28.3888C155.744 28.3888 159.218 17.8398 158.835 14.6843C158.519 18.7273 155.744 27.1562 155.744 27.1562Z" fill="black"/>
<path opacity="0.1" d="M108.57 70.322C108.361 68.3809 107.966 66.4643 107.391 64.5986C106.904 62.8956 106.322 61.0282 105.72 58.4849C105.431 57.216 105.049 55.9698 104.578 54.7563C104.564 54.7193 104.549 54.6823 104.537 54.6474C103.51 52.098 102.483 51.2742 101.895 51.0071C101.341 50.7658 100.812 50.4684 100.318 50.1196C98.4194 48.7494 94.3456 45.6781 90.7176 42.0502C85.7872 37.1198 80.8568 25.41 80.8568 25.41C80.6746 24.4215 80.5729 23.4198 80.5528 22.4148C80.5026 23.8309 80.6045 25.2483 80.8568 26.6426C80.8568 26.6426 85.7872 38.3524 90.7176 43.2828C94.3456 46.9107 98.4194 49.982 100.318 51.3522C100.816 51.7018 101.349 51.9991 101.908 52.2397C102.493 52.5068 103.518 53.3306 104.549 55.88C104.562 55.9149 104.576 55.9519 104.591 55.9889C105.059 57.2025 105.439 58.4487 105.727 59.7175C106.329 62.2608 106.91 64.1282 107.397 65.8312C107.972 67.6969 108.367 69.6135 108.576 71.5546C108.662 72.4133 108.714 73.3481 108.728 74.3999C108.753 73.0387 108.7 71.6772 108.57 70.322Z" fill="black"/>
</g>
<path d="M128.916 61.3981C128.602 61.9166 128.328 62.4577 128.094 63.0169C127.784 63.8797 127.782 64.8185 127.724 65.7327C127.643 67.0156 127.447 68.2888 127.141 69.5373C127.092 69.7673 127.023 69.9927 126.936 70.2112C126.874 70.3583 126.793 70.4965 126.695 70.622C126.586 70.756 126.457 70.873 126.313 70.9692C126.093 71.1162 125.86 71.2434 125.617 71.3493C122.757 72.6846 119.639 73.8638 116.518 73.4036C115.199 73.173 113.922 72.7435 112.732 72.1299C111.602 71.5814 110.324 70.9302 109.153 71.3863C108.974 71.4775 108.78 71.5379 108.58 71.565C108.541 71.5656 108.503 71.5622 108.465 71.5547C108.079 71.4808 108.079 70.1783 107.99 69.7941C107.654 68.3191 107.602 67.1235 107.401 65.8416C107.294 65.1327 107.128 64.4339 106.906 63.7523C106.084 61.2666 105.835 58.6165 105.835 56.0116C105.835 55.8822 104.911 56.0116 104.603 55.9993C104.525 55.9993 104.482 55.9869 104.5 55.9602C104.518 55.9347 104.539 55.9113 104.562 55.8904C104.669 55.803 104.795 55.7406 104.93 55.7075L105.172 55.6356C106.442 55.2761 107.843 55.1262 108.792 54.2325C109.778 53.3101 110.024 51.8372 109.981 50.4895C109.969 50.0561 109.757 49.0042 109.792 48.1311C110.15 48.1903 110.512 48.2212 110.875 48.2236C111.047 48.2291 111.218 48.1949 111.375 48.1236C111.531 48.0524 111.67 47.946 111.779 47.8127C112.121 48.4763 112.418 49.1627 112.666 49.8671C113.015 50.7258 113.282 51.6297 113.794 52.4062C114.616 53.6717 116.132 54.5037 117.64 54.3763C119.148 54.249 120.551 53.0903 120.82 51.603C121.056 50.2985 120.508 48.4208 120.52 47.0649C121.322 47.3001 122.17 47.3277 122.985 47.1451C123.02 47.2288 123.049 47.3145 123.073 47.4019C123.536 48.9878 124.152 50.8079 125.703 51.3708C126.706 51.7324 127.891 51.4612 128.817 51.9871C128.889 52.0281 128.957 52.0734 129.023 52.1227C129.237 52.2818 129.421 52.4772 129.567 52.7C129.948 53.3283 130.174 54.038 130.227 54.7708C130.464 57.0613 130.007 59.3703 128.916 61.3981Z" fill="#06BEA6"/>
<path opacity="0.1" d="M118.511 44.8687C117.486 45.2637 116.383 45.412 115.29 45.3018C114.197 45.1915 113.146 44.8257 112.22 44.2339C112.145 43.5687 112.032 42.9083 111.883 42.2556C111.883 42.2556 118.56 38.0442 118.355 43.18C118.323 43.7475 118.375 44.3166 118.511 44.8687Z" fill="black"/>
<path d="M115.99 44.9263C119.848 44.9263 122.975 41.7991 122.975 37.9415C122.975 34.084 119.848 30.9568 115.99 30.9568C112.132 30.9568 109.005 34.084 109.005 37.9415C109.005 41.7991 112.132 44.9263 115.99 44.9263Z" fill="#FABDBD"/>
<path d="M103.769 55.3008C103.769 55.3008 117.327 46.6726 159.441 55.9171C201.555 65.1616 226.002 57.766 226.002 57.766V67.4214C226.002 67.4214 178.752 72.5573 160.674 67.4214C142.596 62.2856 116.861 59.3232 107.849 67.2756L103.769 55.3008Z" fill="#F86D70"/>
<path opacity="0.1" d="M103.769 55.3008C103.769 55.3008 117.327 46.6726 159.441 55.9171C201.555 65.1616 226.002 57.766 226.002 57.766V67.4214C226.002 67.4214 178.752 72.5573 160.674 67.4214C142.596 62.2856 116.861 59.3232 107.849 67.2756L103.769 55.3008Z" fill="black"/>
<path d="M104.18 55.7115C104.18 55.7115 117.327 47.0832 159.441 56.3278C201.555 65.5723 225.591 58.1767 225.591 58.1767L225.797 67.0103C225.797 67.0103 178.958 72.1462 160.88 67.0103C142.801 61.8745 117.272 58.2958 108.26 66.2481L104.18 55.7115Z" fill="#F86D70"/>
<path d="M99.2369 68.9826C99.2369 68.9826 85.6783 77.6108 43.5643 68.3663C1.45036 59.1217 3.5047 66.5173 3.5047 66.5173V56.8619C3.5047 56.8619 24.2535 51.7261 42.3317 56.8619C60.4099 61.9978 86.1446 64.9602 95.157 57.0078L99.2369 68.9826Z" fill="#F86D70"/>
<path opacity="0.1" d="M99.2369 68.9826C99.2369 68.9826 85.6783 77.6108 43.5643 68.3663C1.45036 59.1217 3.5047 66.5173 3.5047 66.5173V56.8619C3.5047 56.8619 24.2535 51.7261 42.3317 56.8619C60.4099 61.9978 86.1446 64.9602 95.157 57.0078L99.2369 68.9826Z" fill="black"/>
<path d="M98.8261 68.5717C98.8261 68.5717 85.6783 77.1999 43.5643 67.9554C1.45037 58.7109 3.91558 66.1065 3.91558 66.1065L3.71014 57.2728C3.71014 57.2728 24.0481 52.137 42.1263 57.2728C60.2045 62.4087 85.7338 65.9874 94.7462 58.035L98.8261 68.5717Z" fill="#F86D70"/>
<path d="M109.983 39.0981C109.778 37.8162 109.461 36.2015 110.534 35.4681C110.916 35.2362 111.358 35.1218 111.805 35.1394C114.026 35.1168 116.148 36.6637 118.326 36.2117C119.019 36.0665 119.655 35.7242 120.158 35.2259C120.661 34.7277 121.01 34.0947 121.162 33.4031C121.314 32.7115 121.262 31.9908 121.015 31.3275C120.767 30.6643 120.332 30.0868 119.764 29.6646C118.907 29.0277 117.825 28.7976 116.777 28.5819C114.022 28.0149 111.146 27.45 108.426 28.171C105.706 28.8921 103.22 31.3306 103.438 34.1286C103.541 35.4681 104.223 36.6842 104.936 37.8264C105.478 38.6934 107.59 42.7569 108.615 42.8185C110.061 42.9027 110.125 39.9362 109.983 39.0981Z" fill="#3F3D56"/>
<path d="M127.291 77.5903C127.291 77.5903 113.116 81.0827 108.391 77.5903C108.391 77.5903 106.337 85.6023 106.953 89.711C106.953 89.711 117.019 90.3273 118.046 90.9436C118.046 90.9436 118.252 89.3001 119.279 90.1219C119.279 90.1219 122.771 86.0132 129.14 89.711C129.14 89.711 130.372 80.0556 127.291 77.5903Z" fill="#06BEA6"/>
<path opacity="0.1" d="M119.768 29.6646C119.622 29.5587 119.469 29.4626 119.31 29.377C119.734 29.8589 120.024 30.4436 120.151 31.0728C120.278 31.7019 120.238 32.3534 120.034 32.9621C119.831 33.5708 119.471 34.1154 118.991 34.5414C118.511 34.9675 117.927 35.2601 117.299 35.39C115.121 35.842 112.999 34.295 110.778 34.3176C110.331 34.3001 109.889 34.4144 109.507 34.6463C108.434 35.3797 108.749 36.9944 108.954 38.2763C109.09 39.1145 109.034 42.081 107.592 42.0009H107.567C107.964 42.4836 108.334 42.8103 108.619 42.8226C110.057 42.9027 110.117 39.9465 109.981 39.0981C109.776 37.8162 109.461 36.2015 110.534 35.4681C110.916 35.2362 111.358 35.1219 111.805 35.1394C114.026 35.1168 116.148 36.6637 118.326 36.2117C119.019 36.0665 119.655 35.7242 120.158 35.2259C120.661 34.7277 121.01 34.0947 121.162 33.4031C121.314 32.7115 121.262 31.9908 121.014 31.3275C120.767 30.6643 120.332 30.0868 119.764 29.6646H119.768Z" fill="black"/>
<g opacity="0.1">
<path opacity="0.1" d="M17.7413 19.9065C17.7413 19.9065 2.38097 13.4477 0.367713 25.0958C0.367713 25.0958 -0.682055 26.9098 0.778581 28.4094C0.778581 28.4094 1.0929 27.6062 2.57818 28.4382C3.1084 28.7297 3.67104 28.958 4.25452 29.1182C5.043 29.3357 5.88081 29.291 6.64167 28.9908C6.64167 28.9908 11.6933 28.7176 15.9417 22.1088C15.9417 22.1088 17.7618 20.983 17.8543 20.5619L14.8097 20.7673C14.8097 20.7673 15.0419 22.9963 13.7826 24.3336C13.7826 24.3336 14.9022 20.8762 14.3639 20.7776C14.2551 20.757 12.7554 20.9563 12.7554 20.9563C12.7554 20.9563 13.1437 24.8308 11.1119 26.8358C11.1119 26.8358 12.9978 22.8935 12.1761 21.0261L9.93067 21.4596C9.93067 21.4596 10.547 25.5354 8.32417 27.9082C8.32417 27.9082 10.1505 23.7173 9.44584 21.587L7.29289 22.3101C7.29289 22.3101 7.81264 26.2996 5.95346 28.2677C5.95346 28.2677 7.57639 23.212 6.81218 22.5155C6.81218 22.5155 4.87699 23.3003 4.46201 23.7481C4.46201 23.7481 4.77016 26.6242 3.58686 27.6514C3.58686 27.6514 4.3141 24.159 3.95459 24.0152C3.95459 24.0152 1.70509 25.708 1.02099 27.1686C1.02099 27.1686 1.8756 24.9376 3.67109 23.6762C3.67109 23.6762 2.16321 23.4215 1.00045 24.0522C1.00045 24.0522 1.77904 22.571 4.21549 23.2736C4.21549 23.2736 6.02126 22.0246 6.38282 22.041C6.38282 22.041 4.07785 21.0138 2.41178 21.1391C2.41178 21.1391 4.197 20.112 6.94776 21.8294L9.09249 21.0529C9.09249 21.0529 6.11576 19.5265 4.62225 19.5326C4.62225 19.5326 6.60674 18.7664 9.65128 20.9029L11.8474 20.453C11.8474 20.453 9.38216 18.943 7.7202 18.5918C7.7202 18.5918 9.71496 18.2774 12.4822 20.3503L13.9859 20.2229C13.9859 20.2229 12.1658 19.1526 11.6152 18.8917C11.0647 18.6308 11.0893 18.4603 11.0893 18.4603C12.3997 18.6878 13.621 19.2753 14.6166 20.1572C14.6166 20.1572 17.7269 20.0976 17.7413 19.9065Z" fill="#06BEA6"/>
</g>
<g opacity="0.1">
<path opacity="0.1" d="M17.1743 8.32832C17.1743 8.32832 11.7221 -4.25863 3.89711 1.51407C3.89711 1.51407 2.23925 1.99479 2.25363 3.71221C2.25363 3.71221 2.8987 3.41434 3.30545 4.75376C3.45754 5.22942 3.66436 5.6858 3.92176 6.11374C4.2622 6.68933 4.78064 7.13855 5.39883 7.39359C5.39883 7.39359 8.55429 10.1094 14.8488 8.6036C14.8488 8.6036 16.5724 8.97338 16.8682 8.77411L14.9433 7.1594C14.9433 7.1594 13.8134 8.61592 12.2973 8.68783C12.2973 8.68783 14.933 7.27033 14.668 6.90466C14.6146 6.8307 13.6121 6.09525 13.6121 6.09525C13.6121 6.09525 11.6337 8.61798 9.29796 8.65701C9.29796 8.65701 12.665 7.38743 13.2402 5.81175L11.6605 4.78458C11.6605 4.78458 9.70061 7.55588 7.03203 7.69969C7.03203 7.69969 10.5039 6.26165 11.2989 4.58531L9.60817 3.78822C9.60817 3.78822 7.64422 6.45887 5.42348 6.55953C5.42348 6.55953 9.26715 4.48054 9.20757 3.6321C9.20757 3.6321 7.61135 2.99525 7.10598 3.03223C7.10598 3.03223 5.65357 4.91195 4.35728 4.85854C4.35728 4.85854 6.77934 3.19658 6.64581 2.90691C6.64581 2.90691 4.34495 2.63163 3.10618 3.11235C3.10618 3.11235 4.88524 2.27418 6.67046 2.54946C6.67046 2.54946 5.92063 1.53667 4.87497 1.25522C4.87497 1.25522 6.18153 0.817648 7.22924 2.62341C7.22924 2.62341 9.01241 2.90897 9.2199 3.12262C9.2199 3.12262 8.43925 1.19359 7.37099 0.324606C7.37099 0.324606 9.01446 0.735476 9.67185 3.31778L11.3872 4.07994C11.3872 4.07994 10.4895 1.47709 9.58763 0.632757C9.58763 0.632757 11.2044 1.30658 11.796 4.31003L13.3553 5.29406C13.3553 5.29406 12.7493 2.99319 11.9645 1.84687C11.9645 1.84687 13.3286 2.79392 13.7929 5.60221L14.7584 6.38286C14.7584 6.38286 14.2859 4.71062 14.1072 4.24223C13.9284 3.77384 14.0414 3.68756 14.0414 3.68756C14.6892 4.56986 15.0796 5.61451 15.1693 6.70539C15.1693 6.70539 17.0634 8.43514 17.1743 8.32832Z" fill="#06BEA6"/>
</g>
</g>
<defs>
<clipPath id="clip0">
<rect width="226" height="150.374" fill="white"/>
</clipPath>
</defs>
</svg>
