<svg width="226" height="188" viewBox="0 0 226 188" fill="none" xmlns="http://www.w3.org/2000/svg">
<g clip-path="url(#clip0)">
<path opacity="0.1" d="M160.621 187.998C173.373 187.998 183.709 186.981 183.709 185.726C183.709 184.472 173.373 183.455 160.621 183.455C147.87 183.455 137.533 184.472 137.533 185.726C137.533 186.981 147.87 187.998 160.621 187.998Z" fill="#06BEA6"/>
<path opacity="0.1" d="M98.9459 2.74995C109.114 -1.02227 121.494 2.22198 132.065 6.95354C165.268 21.8178 189.457 50.0342 208.675 78.7808C215.633 89.1898 222.243 100.057 224.859 111.677C230.185 135.328 216.293 159.813 192.667 168.393C184.632 171.314 175.806 172.511 166.965 173.178C151.245 174.367 134.969 173.895 119.375 169.494C108.255 166.348 97.7348 161.289 87.645 155.699C59.4671 140.08 33.7339 119.797 15.2044 95.02C7.07769 84.1527 0.202595 71.9014 0.00449171 59.3625C-0.193612 46.8236 7.99392 34.2241 21.465 32.092C27.0344 31.2112 32.9257 32.1279 38.6729 33.0715C47.1351 34.4622 55.7121 35.9248 64.0775 35.3182C72.7197 34.6869 83.9598 31.3168 85.5357 23.0827C87.2038 14.2419 88.7909 6.51768 98.9459 2.74995Z" fill="#06BEA6"/>
<path d="M54.9332 172.729C54.9332 172.729 65.7973 172.075 64.5164 179.674C64.5164 179.674 64.7708 181.022 63.5507 181.626C63.5507 181.626 63.5326 181.062 62.4363 181.253C62.0469 181.32 61.6508 181.34 61.2567 181.312C60.7237 181.275 60.2172 181.066 59.8137 180.716C59.8137 180.716 56.7589 179.458 55.5725 174.475C55.5725 174.475 54.6923 173.39 54.7283 173.109L56.5608 173.891C56.5608 173.891 55.9349 175.212 56.428 176.308C56.428 176.308 56.4865 173.94 56.8399 173.994C56.9097 174.005 57.7922 174.443 57.7922 174.443C57.7922 174.443 56.7138 176.742 57.5265 178.413C57.5265 178.413 57.2181 175.58 58.1276 174.61L59.4198 175.362C59.4198 175.362 58.1591 177.737 59.0145 179.674C59.0145 179.674 58.7894 176.701 59.6899 175.544L60.8605 176.443C60.8605 176.443 59.6764 178.784 60.399 180.393C60.399 180.393 60.4913 176.931 61.1126 176.67C61.1126 176.67 62.1369 177.569 62.2922 177.942C62.2922 177.942 61.4818 179.64 61.9838 180.536C61.9838 180.536 62.2922 178.231 62.5466 178.22C62.5466 178.22 63.5642 179.748 63.6722 180.795C63.6722 180.795 63.6272 179.238 62.792 178.074C62.792 178.074 63.778 178.243 64.3543 178.881C64.3543 178.881 64.1945 177.8 62.5421 177.706C62.5421 177.706 61.7002 176.549 61.4728 176.477C61.4728 176.477 63.1184 176.34 64.1157 176.782C64.1157 176.782 63.2377 175.762 61.1712 176.225L60.0163 175.286C60.0163 175.286 62.1842 174.989 63.1004 175.317C63.1004 175.317 62.0446 174.419 59.7057 175.072L58.4495 174.322C58.4495 174.322 60.2955 173.924 61.3963 174.068C61.3963 174.068 60.2347 173.444 58.0803 174.12L57.1798 173.718C57.1798 173.718 58.5305 173.453 58.929 173.41C59.3275 173.367 59.3455 173.259 59.3455 173.259C58.4886 173.116 57.6086 173.213 56.8039 173.54C56.8039 173.54 54.8994 172.859 54.9332 172.729Z" fill="#06BEA6"/>
<path opacity="0.1" d="M62.4161 183.585C66.6632 183.585 70.1061 183.005 70.1061 182.289C70.1061 181.573 66.6632 180.992 62.4161 180.992C58.169 180.992 54.7261 181.573 54.7261 182.289C54.7261 183.005 58.169 183.585 62.4161 183.585Z" fill="#06BEA6"/>
<path d="M40.3793 167.618C40.3793 167.618 46.5048 167.249 45.7822 171.534C45.8203 171.751 45.7883 171.975 45.6908 172.173C45.5933 172.37 45.4353 172.532 45.2396 172.635C45.2396 172.635 45.2284 172.318 44.6115 172.426C44.3923 172.463 44.1693 172.474 43.9474 172.457C43.6462 172.439 43.3596 172.321 43.1325 172.122C43.1325 172.122 41.4126 171.41 40.7373 168.602C40.7373 168.602 40.242 167.989 40.26 167.831L41.2956 168.281C41.2956 168.281 40.9421 169.026 41.219 169.644C41.219 169.644 41.2528 168.308 41.4441 168.339C41.4847 168.339 41.9822 168.597 41.9822 168.597C41.9822 168.597 41.3743 169.894 41.8336 170.844C41.8336 170.844 41.658 169.247 42.1713 168.698L42.8984 169.123C42.8984 169.123 42.1893 170.471 42.6733 171.554C42.6733 171.554 42.5495 169.878 43.0537 169.226L43.7133 169.739C43.7133 169.739 43.038 171.058 43.4544 171.965C43.4544 171.965 43.5062 170.013 43.8574 169.867C43.8574 169.867 44.4337 170.375 44.5215 170.583C44.5215 170.583 44.0713 171.541 44.3482 172.046C44.3482 172.046 44.5215 170.747 44.6656 170.741C44.6656 170.741 45.2396 171.601 45.2982 172.192C45.2694 171.646 45.0987 171.117 44.8029 170.658C45.1341 170.718 45.4402 170.874 45.6831 171.107C45.6831 171.107 45.5953 170.498 44.6611 170.444C44.6611 170.444 44.1861 169.79 44.06 169.752C44.06 169.752 44.9875 169.674 45.5503 169.923C45.5503 169.923 45.055 169.348 43.8889 169.608L43.2383 169.078C43.2383 169.078 44.4607 168.912 44.9785 169.096C44.9785 169.096 44.3819 168.588 43.0627 168.959L42.3559 168.534C42.9004 168.416 43.4581 168.368 44.015 168.393C44.015 168.393 43.3621 168.04 42.1465 168.422L41.64 168.197C41.64 168.197 42.4031 168.047 42.626 168.024C42.8489 168.002 42.8624 167.939 42.8624 167.939C42.3788 167.859 41.8824 167.914 41.4284 168.099C41.4284 168.099 40.3613 167.692 40.3793 167.618Z" fill="#06BEA6"/>
<path opacity="0.1" d="M44.598 173.738C46.9926 173.738 48.9338 173.41 48.9338 173.005C48.9338 172.601 46.9926 172.273 44.598 172.273C42.2035 172.273 40.2623 172.601 40.2623 173.005C40.2623 173.41 42.2035 173.738 44.598 173.738Z" fill="#06BEA6"/>
<path d="M191.075 171.736C191.075 171.736 198.47 171.287 197.604 176.454C197.648 176.717 197.608 176.986 197.49 177.225C197.372 177.464 197.182 177.659 196.946 177.784C196.946 177.784 196.933 177.4 196.188 177.53C195.922 177.575 195.652 177.588 195.384 177.568C195.021 177.545 194.676 177.403 194.403 177.164C194.403 177.164 192.322 176.308 191.514 172.915C191.514 172.915 190.915 172.176 190.94 171.988L192.187 172.518C192.187 172.518 191.762 173.416 192.097 174.165C192.097 174.165 192.138 172.551 192.376 172.592C192.426 172.592 193.025 172.902 193.025 172.902C193.025 172.902 192.291 174.475 192.845 175.598C192.845 175.598 192.635 173.67 193.254 173.01L194.132 173.52C194.132 173.52 193.275 175.137 193.858 176.456C193.858 176.456 193.707 174.434 194.308 173.646L195.105 174.266C195.105 174.266 194.299 175.859 194.79 176.962C194.79 176.962 194.855 174.607 195.278 174.427C195.278 174.427 195.974 175.041 196.08 175.292C196.08 175.292 195.528 176.45 195.87 177.061C195.87 177.061 196.08 175.488 196.253 175.488C196.253 175.488 196.946 176.528 197.018 177.24C196.985 176.582 196.779 175.944 196.422 175.389C196.822 175.465 197.191 175.655 197.484 175.937C197.484 175.937 197.376 175.203 196.248 175.137C196.248 175.137 195.677 174.349 195.524 174.302C195.524 174.302 196.649 174.207 197.325 174.508C197.325 174.508 196.726 173.816 195.319 174.131L194.533 173.491C194.533 173.491 196.008 173.288 196.633 173.511C196.633 173.511 195.913 172.897 194.321 173.345L193.466 172.835C193.466 172.835 194.722 172.565 195.472 172.662C195.472 172.662 194.682 172.237 193.221 172.698L192.608 172.423C192.608 172.423 193.529 172.241 193.799 172.214C194.069 172.188 194.083 172.111 194.083 172.111C193.5 172.014 192.901 172.08 192.354 172.302C192.354 172.302 191.053 171.821 191.075 171.736Z" fill="#06BEA6"/>
<path opacity="0.1" d="M196.167 179.128C199.058 179.128 201.401 178.732 201.401 178.245C201.401 177.757 199.058 177.362 196.167 177.362C193.277 177.362 190.933 177.757 190.933 178.245C190.933 178.732 193.277 179.128 196.167 179.128Z" fill="#06BEA6"/>
<path d="M183.707 117.193C183.565 116.402 183.483 115.601 183.462 114.798C183.462 113.834 182.149 112.98 182.149 112.98C182.149 112.98 181.339 111.109 180.799 110.832C180.258 110.556 178.59 108.107 178.59 108.107C178.571 107.624 178.395 107.16 178.088 106.786C177.589 106.13 177.132 105.443 176.722 104.728C176.497 104.454 176.609 104.261 176.272 102.663C176.254 102.58 176.233 102.499 176.209 102.423C176.209 102.387 176.186 102.356 176.172 102.32C176.531 101.961 176.781 101.509 176.893 101.015C177.006 100.521 176.977 100.005 176.81 99.527C176.749 99.3368 176.639 99.1662 176.49 99.0327C176.109 98.7226 175.502 98.8507 175.11 98.5564L175.526 96.7186C175.625 96.2692 175.677 95.7008 175.283 95.4582C175.135 95.3882 174.98 95.3361 174.82 95.3031C174.144 95.0785 173.752 94.3663 173.577 93.681C173.408 93.021 173.362 92.3356 173.442 91.659C173.518 91.0074 173.71 90.3739 173.779 89.7201C173.906 88.5108 173.615 87.2946 172.953 86.2736C172.696 85.833 172.317 85.4758 171.861 85.2446C171.445 85.0582 170.961 85.02 170.572 84.7953C169.734 84.2628 169.777 82.9979 169.108 82.2722C168.44 81.5465 167.256 81.5488 166.281 81.7982C165.306 82.0476 164.336 82.4722 163.336 82.3666C162.692 82.2947 162.089 82.0026 161.443 81.9352C161.258 81.9177 161.072 81.926 160.889 81.9599V81.9397C160.412 82.0251 159.973 82.2902 159.86 82.7418C159.835 82.8492 159.825 82.9596 159.829 83.0698C159.829 83.3327 159.892 83.6068 159.896 83.8584C159.905 83.9584 159.893 84.059 159.862 84.1543C159.83 84.2496 159.78 84.3377 159.714 84.4133C159.586 84.5504 159.397 84.6223 159.264 84.7638C159.21 84.818 159.167 84.8825 159.139 84.9536C159.111 85.0247 159.097 85.1008 159.1 85.1772C159.1 85.5771 159.599 85.9299 159.935 86.0916H159.948C159.858 86.1815 159.768 86.2759 159.685 86.3725C158.723 87.4563 158.193 88.8543 158.195 90.302C158.203 91.4712 158.553 92.6126 159.203 93.5858C159.852 94.5589 160.773 95.3214 161.851 95.7794L161.803 95.9255C161.708 96.2143 161.598 96.4978 161.472 96.7747C161.239 96.6966 160.992 96.6701 160.748 96.6973C160.504 96.7245 160.268 96.8046 160.059 96.932C159.415 97.3813 158.156 97.3454 157.821 97.2623C157.485 97.1791 153.994 96.7388 153.713 96.8489C153.431 96.959 152.875 96.4647 152.513 97.1252C152.15 97.7858 151.981 98.143 151.612 98.3092C151.243 98.4755 150.606 98.9967 150.691 99.1068C150.777 99.2169 149.768 99.8774 149.768 99.8774C149.768 99.8774 148.902 100.776 148.4 100.895C147.898 101.014 146.835 101.695 146.835 101.695L145.604 102.657C145.604 102.657 144.683 102.796 144.962 102.162C145.241 101.529 144.458 100.731 144.458 100.731C144.458 100.731 142.893 97.5656 142.893 96.9118C142.893 96.258 141.608 93.4698 141.608 93.4698L141.45 93.4541L141.378 93.2497C141.142 92.5869 140.836 91.7736 140.602 91.2973C140.151 90.3873 139.875 90.293 139.875 90.293C139.875 90.293 134.454 86.2309 130.933 87.4689C127.412 88.7068 137.36 92.3959 138.254 92.7823C138.567 92.9171 138.792 93.353 138.949 93.863C138.156 94.2447 137.489 94.844 137.025 95.5907C137.025 95.5907 139.177 100.351 139.233 101.536C139.289 102.72 140.714 106.029 140.714 106.029C140.714 106.029 141.245 108.48 144.123 108.341C144.123 108.341 148.091 109.069 148.958 108.341C149.825 107.613 150.606 107.042 151.027 106.959C151.336 106.858 151.609 106.666 151.808 106.409C151.808 106.409 150.496 114.665 149.852 115.382C149.208 116.099 143.519 125.369 145.561 127.027C147.178 128.276 148.887 129.403 150.673 130.397C150.847 130.482 151.367 129.617 152.11 129.004C152.11 129.159 152.11 129.316 152.11 129.482C152.123 132.78 152.56 137.795 153.163 138.918C154.064 140.57 153.695 143.762 153.695 143.762C154.168 143.985 154.682 144.108 155.205 144.124C155.232 144.232 155.264 144.349 155.293 144.461C155.786 146.319 156.585 149.193 156.992 149.957C157.607 151.114 158.053 154.776 158.053 154.776C158.053 154.776 158.417 158.37 158.278 158.876C158.224 159.067 158.46 160.563 158.832 162.471C158.607 165.052 158.179 170.029 158.107 171.828C158.107 171.862 158.107 171.896 158.107 171.927V171.959C158.108 171.979 158.108 171.999 158.107 172.019C158.107 172.06 158.107 172.096 158.107 172.129C158.1 172.243 158.104 172.356 158.12 172.469C158.148 172.64 158.135 172.815 158.082 172.981C157.923 173.478 157.72 173.961 157.476 174.423C157.374 174.65 157.284 174.883 157.206 175.12C156.981 175.219 156.707 175.459 156.553 176.045C156.274 177.119 155.856 180.089 155.856 180.089C155.856 180.089 155.687 181.907 155.354 182.32C155.02 182.734 154.678 185.32 157.058 185.65C159.437 185.98 160.466 184.392 160.466 184.392L160.383 177.184V177.171C160.431 177.11 160.472 177.045 160.507 176.975V176.957C160.522 176.924 160.54 176.888 160.556 176.847L160.576 176.793L160.612 176.706C160.611 176.695 160.611 176.685 160.612 176.674C160.843 175.984 160.913 175.25 160.815 174.529V174.493V174.437C160.815 174.419 160.815 174.398 160.815 174.381V174.268C160.815 174.255 160.815 174.239 160.815 174.225C160.815 174.178 160.819 174.128 160.828 174.077C160.828 174.077 160.828 174.059 160.828 174.05L160.842 173.963V173.924C160.842 173.895 160.842 173.866 160.86 173.835C160.859 173.827 160.859 173.82 160.86 173.812C160.882 173.709 160.91 173.587 160.939 173.489V173.464L160.973 173.356C161.006 173.241 161.045 173.131 161.085 173.01V172.988C161.085 172.952 161.11 172.916 161.123 172.882V172.868C161.164 172.758 161.207 172.644 161.247 172.549L161.258 172.52L161.294 172.43L161.306 172.403L161.391 172.203L162.051 174.237C162.051 174.237 162.416 175.751 162.22 176.108C162.024 176.465 162.445 177.953 162.722 177.98L162.463 179.851C162.323 180.883 162.239 181.922 162.213 182.963C162.195 183.082 162.177 183.188 162.163 183.259C161.983 184.219 162.416 185.706 162.416 185.706C164.622 188.31 167.251 185.908 167.251 185.908C167.251 185.908 167.557 184.531 167.251 184.257C166.945 183.983 167.082 182.99 167.082 182.99C167.082 182.99 167.222 180.539 167.249 178.75C167.276 176.962 165.783 175.38 165.783 175.38L165.7 175.454C165.428 174.753 165.117 173.936 165.182 173.569C165.295 172.936 164.874 166.247 164.874 166.247C165.029 164.454 165.062 162.653 164.973 160.855C165.009 160.552 165.043 160.253 165.076 159.957C165.245 158.519 165.383 157.29 165.437 156.645V156.569C165.45 156.396 165.457 156.272 165.455 156.214C165.455 155.989 165.455 155.733 165.477 155.452C165.529 154.679 165.65 153.819 165.65 153.819L166.236 150.267C166.236 150.267 166.686 148.532 167.328 147.571L167.404 147.449C167.429 147.407 167.454 147.359 167.481 147.31L167.492 147.29C167.517 147.243 167.544 147.193 167.569 147.141L167.58 147.121C167.67 146.944 167.767 146.739 167.868 146.515C167.868 146.497 167.884 146.481 167.89 146.463L167.967 146.292C167.967 146.27 167.985 146.247 167.996 146.225C168.007 146.202 168.043 146.11 168.068 146.054C168.079 146.031 168.089 146.008 168.098 145.984C168.127 145.917 168.158 145.847 168.188 145.775L168.23 145.672C168.251 145.62 168.273 145.569 168.296 145.517L168.35 145.38C168.365 145.346 168.379 145.313 168.392 145.279L168.453 145.124C168.453 145.101 168.473 145.077 168.482 145.054C168.642 144.657 168.795 144.263 168.933 143.906C168.975 143.794 169.018 143.681 169.057 143.583C170.488 143.67 171.461 143.749 171.461 143.749C171.461 143.749 171.911 140.529 171.767 138.411C171.672 136.964 171.943 135.144 172.12 134.142C172.141 134.032 172.159 133.933 172.177 133.843L172.215 133.875C172.915 134.425 173.417 132.607 173.417 132.607C173.417 132.607 173.228 130.911 172.967 128.855L172.94 128.651C173.343 128.737 173.751 128.799 174.162 128.837C174.162 128.837 174.387 128.817 174.696 128.779C175.549 129.272 176.449 129.678 177.384 129.992L178.872 127.251C179.151 126.683 179.479 126.14 179.851 125.627C180.301 125.077 181.89 123.315 181.863 122.985C181.836 122.655 182.395 120.754 182.953 119.9C183.511 119.046 183.734 117.33 183.707 117.193ZM177.503 119.284C176.915 119.532 176.357 120.909 176.33 121.322C176.303 121.736 175.686 123.551 175.045 123.771C174.453 123.973 173.322 125.011 173.142 125.178C172.958 125.193 172.748 125.218 172.53 125.254C172.285 123.517 172.042 122.079 171.886 121.79C171.436 120.963 172.379 118.321 172.379 118.321C172.379 118.321 172.472 115.652 173.055 115.018C173.638 114.384 173.505 112.787 173.505 112.787C173.505 112.787 173.644 112.126 173.701 111.825C173.757 111.524 174.531 111.825 174.538 111.825C174.538 111.825 176.046 112.65 176.272 113.888C176.497 115.126 178.145 117.274 178.145 117.274C178.145 117.274 177.892 118.017 178.145 118.397C178.397 118.777 178.09 119.037 177.503 119.284Z" fill="url(#paint0_linear)"/>
<path d="M137.088 95.7593C137.546 95.0039 138.218 94.4002 139.019 94.0238C139.82 93.6474 140.714 93.5149 141.59 93.6429V96.8579H139.634L138.103 96.4715L137.088 95.7593Z" fill="#4C4981"/>
<path opacity="0.1" d="M137.088 95.7593C137.546 95.0039 138.218 94.4002 139.019 94.0238C139.82 93.6474 140.714 93.5149 141.59 93.6429V96.8579H139.634L138.103 96.4715L137.088 95.7593Z" fill="black"/>
<path d="M141.736 94.4944L139.339 96.1704C139.339 96.1704 139.319 95.8357 139.258 95.3773C139.138 94.5101 138.871 93.2092 138.292 92.9576C137.412 92.5712 127.612 88.8911 131.088 87.6531C134.564 86.4152 139.897 90.4728 139.897 90.4728C139.897 90.4728 140.172 90.5671 140.611 91.4725C140.836 91.9488 141.144 92.7599 141.376 93.4227C141.59 94.0203 141.736 94.4944 141.736 94.4944Z" fill="#AE6E79"/>
<path d="M160.889 97.0758L161.162 96.9478L161.927 97.8195L161.301 99.1518L160.234 98.7249L160.482 97.66L160.889 97.0758Z" fill="#4C4981"/>
<path d="M157.263 175.106C157.263 175.106 156.574 175.025 156.299 176.097C156.024 177.169 155.61 180.141 155.61 180.141C155.61 180.141 155.446 181.954 155.115 182.367C154.784 182.781 154.455 185.362 156.794 185.69C159.133 186.018 160.153 184.434 160.153 184.434L160.07 177.229L157.263 175.106Z" fill="#444053"/>
<path d="M165.425 175.43C165.425 175.43 166.898 177.002 166.871 178.786C166.844 180.57 166.704 183.017 166.704 183.017C166.704 183.017 166.569 184.008 166.871 184.282C167.172 184.556 166.871 185.931 166.871 185.931C166.871 185.931 164.282 188.328 162.107 185.729C162.107 185.729 161.684 184.244 161.86 183.286C162.035 182.329 162.526 178.027 162.526 178.027L165.425 175.43Z" fill="#444053"/>
<path d="M169.072 142.576C169.072 142.576 167.587 146.723 166.952 147.685C166.317 148.647 165.88 150.381 165.88 150.381L165.302 153.924C165.189 154.716 165.124 155.515 165.108 156.315C165.135 157.112 163.676 168.732 163.676 168.732L161.364 171.673C161.364 171.673 160.347 173.733 160.511 174.594C160.675 175.454 160.401 176.82 160.061 177.231C160.061 177.231 160.007 179.928 159.924 180.527C159.84 181.127 160.227 182.837 159.924 183.138C159.62 183.439 155.574 183.304 155.464 182.808C155.354 182.311 155.959 179.923 155.959 179.923L156.317 177.616C156.317 177.616 157.033 176.353 156.869 175.94C156.704 175.526 157.17 174.567 157.197 174.484C157.224 174.401 157.969 173.055 157.832 172.534C157.695 172.012 158.699 160.927 158.699 160.927L161.533 141.064L169.072 142.576Z" fill="#AE6E79"/>
<path opacity="0.1" d="M169.072 142.576C169.072 142.576 168.847 143.2 168.539 144.021C168.048 145.315 167.341 147.096 166.952 147.685C166.319 148.647 165.878 150.381 165.878 150.381L165.299 153.926C165.188 154.719 165.124 155.517 165.108 156.317C165.108 156.631 164.896 158.638 164.626 160.949C164.21 164.484 163.676 168.734 163.676 168.734L161.364 171.675C161.364 171.675 161.247 171.9 161.101 172.255C160.81 172.929 160.401 174.023 160.511 174.587C160.675 175.439 160.401 176.811 160.061 177.225C160.061 177.225 160.005 179.921 159.924 180.521C159.842 181.12 160.227 182.828 159.924 183.131C159.62 183.435 155.574 183.298 155.464 182.803C155.354 182.309 155.959 179.918 155.959 179.918L156.317 177.609C156.317 177.609 157.033 176.346 156.866 175.933C156.7 175.519 157.17 174.56 157.197 174.477C157.224 174.394 157.969 173.048 157.832 172.527C157.726 172.129 158.282 165.62 158.541 162.533C158.629 161.563 158.685 160.932 158.685 160.932L161.123 143.843L161.322 142.466L161.52 141.068L169.072 142.576Z" fill="black"/>
<path d="M166.596 183.895C166.621 184.199 162.713 184.639 162.154 184.309C161.596 183.978 162.154 179.885 162.154 179.885L162.409 178.018C162.136 177.989 161.722 176.506 161.914 176.149C162.105 175.791 161.749 174.282 161.749 174.282L161.101 172.26L160.705 171.022C160.061 169.604 159.129 165.56 158.55 162.54C158.186 160.644 157.954 159.15 158.006 158.959C158.143 158.465 157.78 154.866 157.78 154.866C157.78 154.866 157.33 151.21 156.736 150.058C156.333 149.294 155.547 146.425 155.061 144.573C154.813 143.623 154.642 142.94 154.642 142.94C154.642 142.94 158.802 142.592 161.326 142.471C162.485 142.414 163.3 142.408 163.206 142.502C163.111 142.596 163.086 143.1 163.091 143.828C163.102 145.713 163.366 149.029 163.645 149.921C164.03 151.156 164.415 154.863 164.25 155.223C164.086 155.582 164.14 157.971 164.14 157.971C164.424 158.941 164.587 159.942 164.626 160.952C164.714 162.741 164.683 164.534 164.532 166.319C164.532 166.319 164.944 172.997 164.833 173.628C164.723 174.259 165.714 176.239 165.714 176.623C165.714 177.007 165.988 179.618 165.988 179.618C165.988 179.618 166.578 183.594 166.596 183.895Z" fill="#AE6E79"/>
<path d="M168.768 103.643L168.296 104.153L167.987 104.485L166.186 106.418L161.533 106.941L159.057 106.28L158.444 106.116C158.444 106.116 158.444 104.876 158.555 103.389C158.712 101.481 159.088 99.1651 159.987 98.5338C160.436 98.1824 160.795 97.7287 161.033 97.2105C161.213 96.8532 161.364 96.482 161.484 96.1006C161.502 96.0512 161.515 96.004 161.531 95.9546C161.733 95.2888 161.88 94.6071 161.968 93.9168C161.968 93.9168 162.562 93.5888 163.388 93.2069C165.542 92.2026 169.264 90.8164 167.969 93.9168C167.779 94.3709 167.617 94.8361 167.483 95.3098C167.463 95.3794 167.445 95.4491 167.429 95.5165C166.997 97.242 167.283 98.2889 167.605 98.8663C167.659 98.9663 167.721 99.0618 167.791 99.1517C167.879 99.2722 167.985 99.379 168.104 99.4684L168.64 102.863L168.685 103.144L168.768 103.643Z" fill="#AE6E79"/>
<path opacity="0.1" d="M167.971 94.0832C167.726 94.6718 168.091 93.6024 167.971 94.0832C166.99 94.7797 164.678 96.7635 163.379 96.7635C162.501 96.7635 162.238 96.604 161.486 96.2647C161.713 95.5538 161.875 94.8236 161.97 94.0832C161.97 94.0832 169.761 89.7965 167.971 94.0832Z" fill="black"/>
<path d="M169.955 90.4726C169.954 91.9523 169.404 93.3792 168.412 94.4787C167.42 95.5783 166.056 96.2728 164.581 96.4286C164.374 96.4489 164.165 96.4623 163.953 96.4623C162.766 96.4623 161.606 96.1111 160.619 95.4529C159.632 94.7947 158.863 93.8593 158.408 92.7648C157.954 91.6703 157.835 90.466 158.067 89.3041C158.298 88.1422 158.87 87.0749 159.709 86.2373C160.549 85.3996 161.618 84.8291 162.782 84.598C163.946 84.3669 165.153 84.4855 166.25 84.9389C167.347 85.3922 168.284 86.1599 168.943 87.1449C169.603 88.1299 169.955 89.288 169.955 90.4726Z" fill="#AE6E79"/>
<path opacity="0.1" d="M170.808 117.024L169.953 119.251C169.953 119.251 169.257 119.28 168.172 119.314C164.509 119.43 156.439 119.579 156.079 118.64C155.998 118.401 155.955 118.152 155.952 117.9C155.905 116.469 156.574 114.272 156.574 114.272C156.574 114.272 156.959 109.875 156.959 109.684C156.959 109.493 156.628 106.413 156.628 106.413L157.29 103.942L159.133 102.65C159.133 102.65 159.96 103.915 160.455 104.023C160.95 104.13 161.612 104.739 161.612 104.739C161.612 104.739 163.235 105.728 163.76 105.177C164.284 104.627 168.356 102.209 168.356 102.209L170.504 104.573L170.808 117.024Z" fill="black"/>
<path d="M170.808 117.366L169.953 119.59C169.953 119.59 169.257 119.622 168.172 119.655H168.066C167.598 119.671 167.062 119.687 166.49 119.698C163.579 119.765 159.57 119.783 157.474 119.473C156.686 119.361 156.171 119.199 156.085 118.979C156.038 118.847 156.005 118.709 155.986 118.57C155.973 118.467 155.964 118.345 155.959 118.24C155.912 116.809 156.581 114.611 156.581 114.611C156.581 114.611 156.965 110.215 156.965 110.024C156.965 109.833 156.635 106.752 156.635 106.752L157.296 104.281L158.564 103.396L159.14 102.991C159.334 103.281 159.545 103.559 159.773 103.823C159.95 104.061 160.188 104.248 160.462 104.364C160.959 104.474 161.619 105.081 161.619 105.081C161.619 105.081 163.242 106.069 163.766 105.519C164.165 105.099 166.641 103.587 167.785 102.897C168.136 102.684 168.363 102.551 168.363 102.551L168.651 102.87L170.511 104.915L170.808 117.366Z" fill="white"/>
<path opacity="0.1" d="M141.736 94.4943L139.339 96.1703C139.339 96.1703 139.319 95.8356 139.258 95.3773C140.442 94.8785 141.162 93.7753 141.369 93.4226C141.59 94.0202 141.736 94.4943 141.736 94.4943Z" fill="black"/>
<path d="M150.16 100.183L149.638 100.044C149.638 100.044 148.782 100.942 148.287 101.061C147.792 101.181 146.747 101.857 146.747 101.857L145.534 102.818C145.534 102.818 144.634 102.958 144.901 102.324C145.169 101.691 144.406 100.895 144.406 100.895C144.406 100.895 142.864 97.7363 142.864 97.0758C142.864 96.4153 141.59 93.6428 141.59 93.6428C141.59 93.6428 139.992 96.7478 137.074 95.7592C137.074 95.7592 139.195 100.511 139.249 101.693C139.303 102.875 140.707 106.17 140.707 106.17C140.707 106.17 141.232 108.617 144.066 108.48C144.066 108.48 147.977 109.206 148.83 108.48C149.683 107.754 150.453 107.184 150.856 107.101C151.259 107.017 151.626 106.552 151.626 106.552V103.286L150.16 100.183Z" fill="#4C4981"/>
<path opacity="0.1" d="M145.259 103.286C145.259 103.286 145.948 105.842 145.507 106.117L145.259 103.286Z" fill="black"/>
<path opacity="0.1" d="M168.172 119.644C164.509 119.761 156.439 119.907 156.079 118.97C155.998 118.732 155.955 118.482 155.952 118.231L167.917 118.86L168.172 119.644Z" fill="black"/>
<path opacity="0.1" d="M169.072 142.576C169.072 142.576 168.847 143.201 168.539 144.021C167.019 143.929 165.007 143.832 163.095 143.818C162.42 143.818 161.758 143.818 161.132 143.841C159.804 143.881 158.656 143.989 157.924 144.196C156.999 144.48 156.033 144.605 155.065 144.564C154.818 143.614 154.647 142.931 154.647 142.931C154.647 142.931 158.807 142.583 161.33 142.461L161.529 141.064L169.072 142.576Z" fill="black"/>
<path d="M172.294 132.52L171.825 133.508C171.825 133.508 171.76 133.803 171.677 134.27C171.501 135.276 171.227 137.092 171.33 138.539C171.468 140.655 171.026 143.868 171.026 143.868C171.026 143.868 160.896 143.016 157.924 143.868C154.953 144.719 153.49 143.868 153.49 143.868C153.49 143.868 153.85 140.682 152.967 139.033C152.366 137.91 151.943 132.895 151.93 129.597C151.93 128.076 152.006 126.923 152.197 126.69C152.803 125.948 155.39 118.53 155.39 118.53L155.979 118.561L157.555 118.644L166.515 119.116L167.922 119.19L168.071 119.639L172.294 132.52Z" fill="#444053"/>
<path d="M176.753 129.222L176.837 130.102C176.837 130.102 172.4 128.66 172.625 126.887C172.85 125.115 172.625 125.315 172.625 125.315L176.191 125.616L176.753 129.222Z" fill="#4C4981"/>
<path opacity="0.1" d="M176.753 129.222L176.837 130.102C176.837 130.102 172.4 128.66 172.625 126.887C172.85 125.115 172.625 125.315 172.625 125.315L176.191 125.616L176.753 129.222Z" fill="black"/>
<path opacity="0.1" d="M148.22 103.996C148.673 104.38 149.207 104.657 149.782 104.807C149.615 104.771 149.461 104.693 149.332 104.582C149.014 104.357 148.713 104.113 148.406 103.874C148.159 103.681 147.85 103.36 147.547 103.281C147.746 103.542 147.971 103.781 148.22 103.996Z" fill="black"/>
<path opacity="0.1" d="M148.287 105.153C148.43 105.313 148.545 105.496 148.629 105.694C148.771 106.253 148.763 106.84 148.605 107.395L147.893 105.683C147.769 105.391 147.646 105.099 147.497 104.82C147.432 104.701 147.022 104.205 147.069 104.101C147.195 103.809 148.154 104.989 148.287 105.153Z" fill="black"/>
<path opacity="0.1" d="M168.136 114.634C168.621 114.575 169.074 114.363 169.43 114.029C168.699 114.121 168.005 114.409 167.285 114.56C166.616 114.715 165.915 114.65 165.286 114.375C166.114 114.78 167.253 114.793 168.136 114.634Z" fill="black"/>
<path opacity="0.1" d="M166.067 109.603C165.936 109.623 165.802 109.59 165.696 109.511C165.146 109.197 164.604 108.869 164.07 108.527C163.55 108.193 162.922 107.853 162.479 107.431C163.57 108.415 164.588 109.246 166.067 109.603Z" fill="black"/>
<path opacity="0.1" d="M167.593 115.431C167.882 115.444 168.171 115.421 168.453 115.362C168.739 115.302 168.992 115.137 169.16 114.899C169.058 114.875 168.951 114.892 168.861 114.946C167.988 115.312 167.031 115.427 166.096 115.276C166.544 115.467 167.118 115.429 167.593 115.431Z" fill="black"/>
<path opacity="0.1" d="M162.38 128.188C161.806 128.361 161.217 128.476 160.621 128.532C160.158 128.553 159.693 128.544 159.23 128.505L156.979 128.363L155.853 128.291C155.721 128.291 155.178 128.291 155.446 128.024C155.581 127.894 156.333 127.977 156.526 127.97C156.9 127.958 157.275 127.951 157.652 127.95C158.397 127.95 159.145 127.95 159.89 127.995C160.725 128.035 161.547 128.098 162.38 128.188Z" fill="black"/>
<path opacity="0.1" d="M159.77 129.3C159.388 129.285 158.895 129.511 158.501 129.561C158.06 129.613 157.616 129.63 157.173 129.613C156.295 129.591 155.428 129.415 154.613 129.091C156.331 129.179 158.053 129.231 159.77 129.3Z" fill="black"/>
<path opacity="0.1" d="M154.948 130.478C155.115 130.511 155.279 130.556 155.439 130.612C156.389 130.882 157.4 130.644 158.366 130.406C158.125 130.767 157.69 130.923 157.256 131.021C156.549 131.2 155.813 131.227 155.095 131.1C154.87 131.055 154.305 130.974 154.194 130.741C154.01 130.397 154.737 130.444 154.948 130.478Z" fill="black"/>
<path opacity="0.1" d="M160.275 132.25C160.56 132.308 160.841 132.383 161.117 132.475C162.186 132.74 163.296 132.376 164.37 132.131C165.66 131.839 166.984 131.716 168.307 131.767C168.071 131.767 167.695 131.974 167.463 132.043C167.159 132.136 166.85 132.221 166.542 132.297C165.936 132.446 165.322 132.567 164.703 132.655C163.453 132.835 162.188 132.89 160.928 132.819C160.351 132.787 159.352 132.846 158.859 132.556C159.285 132.303 159.782 132.196 160.275 132.25Z" fill="black"/>
<path opacity="0.1" d="M160.678 98.3653C160.678 98.3653 160.732 100.895 160.32 102.05C160.189 102.409 159.987 103.072 159.766 103.816C159.525 104.64 159.262 105.564 159.059 106.287C158.856 107.011 158.721 107.496 158.721 107.496C158.721 107.496 157.792 115.054 157.551 118.655C157.551 118.718 157.551 118.783 157.537 118.844C157.524 119.046 157.501 119.257 157.467 119.475C156.932 123.052 153.841 128.568 152.803 129.008C152.479 129.156 152.184 129.359 151.93 129.608C151.93 128.087 152.006 126.934 152.197 126.701C152.803 125.959 155.39 118.541 155.39 118.541L155.979 118.572C155.966 118.469 155.957 118.348 155.952 118.242C155.905 116.811 156.574 114.613 156.574 114.613C156.574 114.613 156.959 110.217 156.959 110.026C156.959 109.835 156.628 106.754 156.628 106.754L157.29 104.283L158.557 103.398C158.715 101.49 159.091 99.1741 159.989 98.5428C160.439 98.1914 160.798 97.7377 161.036 97.2195C161.213 97.2442 160.889 97.0869 160.889 97.0869L160.678 98.3653Z" fill="black"/>
<path d="M161.162 96.9476C160.932 96.8693 160.688 96.8428 160.447 96.87C160.206 96.8972 159.974 96.9774 159.768 97.1049C159.133 97.5542 157.895 97.516 157.564 97.4351C157.233 97.3543 153.794 96.9117 153.512 97.0218C153.231 97.1318 152.686 96.6376 152.328 97.2981C151.97 97.9586 151.806 98.3136 151.448 98.4776C151.09 98.6416 150.455 99.1651 150.547 99.2752C150.64 99.3853 149.647 100.044 149.647 100.044L151.655 106.559C151.655 106.559 150.361 114.8 149.728 115.514C149.095 116.229 143.479 125.488 145.489 127.137C147.08 128.386 148.765 129.512 150.527 130.507C150.752 130.617 151.545 129.134 152.645 128.667C153.746 128.199 157.161 122.016 157.373 118.5C157.585 114.984 158.557 107.154 158.557 107.154C158.557 107.154 159.741 102.868 160.153 101.713C160.565 100.558 160.511 98.0283 160.511 98.0283L161.162 96.9476Z" fill="#4C4981"/>
<path opacity="0.1" d="M172.294 132.52L171.825 133.508C171.825 133.508 171.76 133.803 171.677 134.27C171.593 134.259 171.515 134.224 171.452 134.169C170.763 133.618 166.724 129.471 166.524 125.789C166.382 123.072 166.45 120.731 166.495 119.689C166.508 119.361 166.522 119.163 166.522 119.12C166.522 119.12 169.66 115.328 169.302 113.984C168.944 112.641 168.118 105.447 168.118 105.447L167.996 104.503L167.787 102.908L167.287 99.0483L167.805 99.1697C167.893 99.2902 167.998 99.397 168.118 99.4865L168.654 102.881L170.513 104.926L170.817 117.372L169.962 119.597C169.962 119.597 169.266 119.628 168.181 119.662H168.075L172.294 132.52Z" fill="black"/>
<path d="M174.027 111.974C174.027 111.974 173.257 111.67 173.203 111.974C173.149 112.277 173.01 112.933 173.01 112.933C173.01 112.933 173.147 114.528 172.559 115.159C171.972 115.791 171.884 118.455 171.884 118.455C171.884 118.455 170.957 121.093 171.395 121.918C171.555 122.216 171.803 123.715 172.051 125.512C172.208 126.636 172.363 127.869 172.501 128.997C172.751 131.046 172.938 132.742 172.938 132.742C172.938 132.742 172.44 134.555 171.751 134.005C171.062 133.454 167.024 129.307 166.826 125.625C166.691 123.039 166.745 120.792 166.79 119.684C166.808 119.215 166.826 118.95 166.826 118.95C166.826 118.95 169.964 115.157 169.606 113.811C169.248 112.466 168.422 105.274 168.422 105.274L168.278 104.162L168.122 102.967L168.086 102.704L167.589 98.8843C167.677 98.9045 170.765 99.601 171.173 100.008C171.58 100.414 174.099 100.996 174.099 100.996C174.479 101.099 174.824 101.302 175.099 101.583C175.374 101.864 175.568 102.214 175.661 102.596C175.686 102.672 175.704 102.753 175.722 102.836C176.053 104.431 175.947 104.622 176.172 104.899C176.398 105.175 174.027 111.974 174.027 111.974Z" fill="#4C4981"/>
<path opacity="0.1" d="M172.519 128.995C171.393 128.77 169.723 128.251 169.761 127.105C169.795 126.033 171.087 125.647 172.066 125.51C172.224 126.629 172.379 127.867 172.519 128.995Z" fill="black"/>
<path d="M176.01 128.424C175.965 128.521 175.785 128.604 175.529 128.678C174.927 128.821 174.315 128.921 173.698 128.977C173.698 128.977 169.871 128.673 169.925 126.941C169.966 125.699 171.695 125.368 172.665 125.294C172.88 125.274 173.096 125.265 173.311 125.267C173.311 125.267 176.175 128.069 176.01 128.424Z" fill="#AE6E79"/>
<path opacity="0.1" d="M176.01 128.424C175.965 128.521 175.785 128.604 175.529 128.678C174.531 127.346 173.14 125.636 172.458 125.485L172.665 125.294C172.88 125.274 173.096 125.265 173.311 125.267C173.311 125.267 176.175 128.069 176.01 128.424Z" fill="black"/>
<path d="M175.047 104.715L176.172 104.881C176.579 105.595 177.03 106.283 177.523 106.941C177.826 107.316 177.999 107.779 178.018 108.26C178.018 108.26 179.671 110.704 180.193 110.978C180.715 111.253 181.515 113.122 181.515 113.122C181.515 113.122 182.809 113.973 182.809 114.935C182.832 115.737 182.915 116.536 183.057 117.325C183.086 117.462 182.865 119.168 182.314 120.021C181.762 120.875 181.211 122.758 181.24 123.095C181.269 123.432 179.698 125.184 179.259 125.733C178.892 126.245 178.57 126.788 178.295 127.355L176.837 130.102C176.837 130.102 173.752 125.569 172.625 125.321C172.625 125.321 173.89 124.113 174.522 123.892C175.155 123.672 175.763 121.87 175.79 121.448C175.817 121.026 176.368 119.662 176.945 119.426C177.521 119.19 177.827 118.932 177.579 118.545C177.332 118.159 177.579 117.422 177.579 117.422C177.579 117.422 175.954 115.279 175.734 114.052C175.513 112.825 174.027 111.992 174.027 111.992L173.174 109.902L175.047 104.715Z" fill="#4C4981"/>
<path opacity="0.1" d="M179.142 114.971C179.765 114.446 180.549 114.149 181.364 114.13C180.841 114.22 180.292 114.335 179.909 114.699C179.759 114.856 179.624 115.028 179.506 115.211C179.376 115.398 178.313 116.746 178.156 116.532C177.892 116.22 178.928 115.153 179.142 114.971Z" fill="black"/>
<path opacity="0.1" d="M176.647 113.67C176.816 113.655 176.978 113.596 177.116 113.499C177.254 113.401 177.363 113.269 177.433 113.115C177.567 112.805 177.65 112.476 177.679 112.14C177.759 111.577 177.873 111.02 178.018 110.471C178.062 110.362 178.081 110.245 178.072 110.128C178.064 110.011 178.03 109.898 177.971 109.797C177.911 109.621 177.829 109.454 177.728 109.298C177.525 109.523 177.467 110.046 177.384 110.347C177.28 110.72 177.186 111.095 177.095 111.47C177.048 111.65 176.675 113.67 176.647 113.67Z" fill="black"/>
<path opacity="0.1" d="M175.673 102.578C175.562 102.723 175.434 102.854 175.292 102.969C174.842 103.326 174.245 103.627 174.189 104.191C174.205 104.374 174.182 104.559 174.122 104.733C173.978 104.98 173.624 104.957 173.343 104.91C173.105 104.889 172.878 104.805 172.683 104.667C172.388 104.416 172.361 103.967 172.136 103.65C171.999 103.486 171.827 103.356 171.631 103.27C171.436 103.184 171.224 103.144 171.011 103.153C170.59 103.14 170.171 103.234 169.75 103.252C169.479 103.266 169.208 103.248 168.942 103.198C168.854 103.185 168.767 103.167 168.681 103.144C168.492 103.098 168.309 103.036 168.131 102.958C168.04 102.921 167.95 102.879 167.863 102.832C167.582 102.688 167.32 102.506 167.087 102.293C166.675 101.915 166.333 101.394 166.366 100.835C166.387 100.491 166.542 100.174 166.591 99.8348C166.76 98.8642 166.114 97.9476 165.414 97.2534C165.135 96.977 164.838 96.7097 164.559 96.4288C164.124 96.0287 163.781 95.5398 163.552 94.9954C163.365 94.416 163.303 93.8031 163.372 93.1981C163.436 92.5846 163.453 91.9673 163.424 91.3513C163.217 89.1675 161.348 87.4937 159.48 86.5838L159.397 86.5411C159.951 85.9062 160.633 85.3951 161.399 85.0413C162.165 84.6875 162.996 84.4988 163.84 84.4876C164.684 84.4764 165.52 84.6429 166.295 84.9764C167.07 85.3098 167.766 85.8026 168.337 86.4225C168.908 87.0425 169.341 87.7757 169.609 88.5742C169.877 89.3728 169.973 90.2187 169.891 91.0568C169.809 91.8949 169.55 92.7063 169.133 93.438C168.715 94.1697 168.148 94.8053 167.467 95.3032C167.447 95.3729 167.429 95.4425 167.413 95.5099C166.981 97.2354 167.267 98.2824 167.589 98.8598C167.677 98.88 170.765 99.5765 171.173 99.9831C171.58 100.39 174.099 100.972 174.099 100.972C174.482 101.073 174.83 101.276 175.107 101.559C175.384 101.842 175.58 102.194 175.673 102.578Z" fill="black"/>
<path d="M159.001 84.9571C159.124 84.8156 159.311 84.7437 159.437 84.6066C159.827 84.1843 159.437 83.4945 159.579 82.9373C159.732 82.3195 160.493 82.0499 161.128 82.115C161.763 82.1802 162.357 82.4723 162.992 82.5442C163.978 82.6543 164.932 82.2274 165.894 81.978C166.855 81.7286 168.016 81.7151 168.678 82.4498C169.34 83.1845 169.295 84.4359 170.119 84.9684C170.5 85.2133 170.979 85.2402 171.391 85.4177C171.842 85.6486 172.216 86.0053 172.467 86.4445C173.119 87.4667 173.406 88.6787 173.282 89.8842C173.212 90.5357 173.023 91.1693 172.947 91.8208C172.869 92.4974 172.915 93.1825 173.082 93.8429C173.255 94.5169 173.631 95.2448 174.304 95.4605C174.46 95.4946 174.611 95.5467 174.754 95.6155C175.144 95.8582 175.092 96.4288 174.993 96.8737L174.592 98.7182C174.977 99.0103 175.576 98.8845 175.943 99.1923C176.09 99.3263 176.199 99.4969 176.258 99.6866C176.439 100.202 176.459 100.761 176.314 101.288C176.17 101.815 175.869 102.286 175.45 102.639C175 102.996 174.403 103.297 174.347 103.859C174.364 104.042 174.341 104.227 174.279 104.4C174.137 104.647 173.782 104.625 173.5 104.578C173.264 104.556 173.037 104.472 172.843 104.335C172.546 104.083 172.521 103.634 172.296 103.317C172.159 103.154 171.986 103.024 171.791 102.938C171.596 102.852 171.384 102.812 171.17 102.821C170.747 102.807 170.331 102.902 169.907 102.922C168.931 102.962 167.978 102.618 167.253 101.965C166.839 101.585 166.499 101.066 166.531 100.504C166.551 100.163 166.706 99.8438 166.756 99.5046C166.922 98.5362 166.279 97.6173 165.578 96.9231C164.878 96.2289 164.057 95.5886 163.714 94.6652C163.287 93.5216 163.701 92.2455 163.586 91.0322C163.379 88.8462 161.513 87.1746 159.642 86.2625C159.226 86.049 158.517 85.5076 159.001 84.9571Z" fill="#444053"/>
<path opacity="0.1" d="M173.723 103.825C173.426 103.571 173.401 103.124 173.176 102.807C173.039 102.644 172.866 102.514 172.671 102.427C172.476 102.341 172.264 102.3 172.051 102.308C171.627 102.295 171.209 102.389 170.788 102.409C169.808 102.452 168.851 102.108 168.125 101.45C167.71 101.073 167.373 100.551 167.404 99.992C167.424 99.6483 167.58 99.3292 167.629 98.9922C167.798 98.0216 167.152 97.1027 166.452 96.4085C165.752 95.7143 164.932 95.074 164.588 94.1506C164.162 93.0092 164.588 91.7331 164.462 90.5176C164.253 88.3316 162.386 86.66 160.518 85.7479C160.081 85.5344 159.372 84.993 159.856 84.4425C159.978 84.301 160.164 84.2291 160.29 84.092C160.68 83.6719 160.29 82.9799 160.435 82.425C160.462 82.3145 160.51 82.2101 160.576 82.1172C160.106 82.2048 159.676 82.4699 159.561 82.9193C159.424 83.4764 159.809 84.1662 159.419 84.5886C159.293 84.7256 159.106 84.7975 158.983 84.9368C158.499 85.4873 159.208 86.031 159.644 86.2422C161.515 87.1543 163.381 88.8281 163.588 91.0119C163.703 92.2274 163.289 93.5035 163.717 94.6471C164.059 95.5682 164.881 96.2198 165.581 96.905C166.281 97.5903 166.931 98.5159 166.758 99.4865C166.663 99.815 166.588 100.149 166.533 100.486C166.501 101.046 166.841 101.567 167.256 101.944C167.981 102.602 168.937 102.947 169.916 102.904C170.34 102.884 170.756 102.791 171.179 102.803C171.393 102.795 171.605 102.835 171.8 102.922C171.995 103.008 172.168 103.138 172.305 103.301C172.53 103.618 172.555 104.068 172.852 104.319C173.046 104.456 173.273 104.538 173.509 104.56C173.791 104.611 174.146 104.629 174.288 104.384C174.339 104.284 174.361 104.172 174.351 104.061C174.125 104.039 173.908 103.957 173.723 103.825Z" fill="black"/>
<path d="M140.953 90.4727H125.381V75.1592H140.964L140.953 90.4727ZM140.728 67.3833H125.607C125.607 43.5862 148.271 44.9769 148.271 29.9217C148.271 21.6291 141.471 14.9856 133.162 14.9856C124.852 14.9856 118.054 22.1481 118.054 30.1576H102.944C102.937 26.1953 103.714 22.2707 105.23 18.6088C106.746 14.9468 108.972 11.6196 111.779 8.81781C114.587 6.01606 117.92 3.79494 121.59 2.28179C125.259 0.76864 129.191 -0.00676232 133.162 4.44277e-05C149.852 4.44277e-05 163.379 13.2893 163.379 29.9217C163.379 48.7469 140.716 50.8902 140.716 67.3833H140.728Z" fill="#06BEA6"/>
<path opacity="0.1" d="M63.2895 85.9118H59.2734V81.9531H63.2895V85.9118ZM63.2288 79.958H59.3342C59.3342 73.8245 65.176 74.1817 65.176 70.2972C65.174 69.7889 65.0716 69.286 64.8747 68.8173C64.6778 68.3485 64.3904 67.9231 64.0287 67.5653C63.667 67.2075 63.2382 66.9243 62.7669 66.7319C62.2955 66.5395 61.7908 66.4417 61.2815 66.4441C60.253 66.4678 59.2737 66.8882 58.5493 67.6171C57.8248 68.346 57.4114 69.3267 57.396 70.3533H53.5014C53.5273 68.3135 54.3553 66.3655 55.807 64.9293C57.2586 63.4931 59.2177 62.6838 61.2617 62.6758C63.3058 62.6679 65.2711 63.4619 66.7339 64.8868C68.1968 66.3116 69.04 68.2531 69.0818 70.2927C69.0706 75.1456 63.2288 75.6982 63.2288 79.949V79.958Z" fill="#06BEA6"/>
<path opacity="0.1" d="M93.6984 113.414H89.6823V109.466H93.6984V113.414ZM93.6399 107.462H89.7454C89.7454 101.326 95.5872 101.686 95.5872 97.8014C95.5851 97.2933 95.4827 96.7905 95.2858 96.3219C95.0889 95.8533 94.8014 95.428 94.4397 95.0703C94.078 94.7127 93.6492 94.4297 93.1778 94.2375C92.7065 94.0454 92.2018 93.9479 91.6926 93.9505C90.6598 93.9691 89.6748 94.3879 88.9459 95.1183C88.2169 95.8487 87.8013 96.8335 87.7868 97.8643H83.8923C83.9181 95.8245 84.7462 93.8765 86.1978 92.4403C87.6495 91.0041 89.6086 90.1948 91.6526 90.1868C93.6966 90.1789 95.662 90.9729 97.1248 92.3977C98.5877 93.8226 99.4309 95.7641 99.4727 97.8036C99.4794 102.657 93.6399 103.211 93.6399 107.462Z" fill="#06BEA6"/>
<path opacity="0.1" d="M112.19 64.7278H109.279V61.8722H112.19V64.7278ZM112.147 60.4118H109.324C109.324 55.9679 113.558 56.2262 113.558 53.4134C113.557 53.0451 113.482 52.6809 113.339 52.3414C113.196 52.0019 112.988 51.6938 112.726 51.4346C112.464 51.1755 112.153 50.9705 111.812 50.8312C111.47 50.6919 111.104 50.6212 110.735 50.6229C109.988 50.638 109.276 50.9421 108.75 51.4711C108.223 52.0001 107.923 52.7126 107.912 53.4583H105.089C105.083 51.9639 105.673 50.5283 106.727 49.4673C107.782 48.4064 109.215 47.807 110.713 47.8011C112.21 47.7951 113.649 48.3831 114.712 49.4356C115.775 50.4881 116.375 51.9189 116.381 53.4134C116.377 56.9295 112.147 57.3316 112.147 60.4118Z" fill="#06BEA6"/>
<path opacity="0.1" d="M161.905 68.7582H160.259V67.1406H161.905V68.7582ZM161.88 66.3205H160.275C160.275 63.8087 162.668 63.9548 162.668 62.3641C162.668 62.1561 162.626 61.9501 162.546 61.7581C162.466 61.5661 162.348 61.3919 162.2 61.2456C162.052 61.0994 161.876 60.9839 161.682 60.9059C161.489 60.828 161.282 60.789 161.074 60.7914C160.652 60.8001 160.249 60.9719 159.952 61.2707C159.654 61.5695 159.484 61.972 159.478 62.3933H157.882C157.9 61.5631 158.243 60.7729 158.837 60.1912C159.431 59.6094 160.229 59.2821 161.061 59.2788C161.893 59.2756 162.693 59.5968 163.292 60.1739C163.89 60.751 164.239 61.5385 164.264 62.3686C164.273 64.3434 161.88 64.5794 161.88 66.3205Z" fill="#06BEA6"/>
<path opacity="0.1" d="M187.064 142.331H185.418V140.714H187.064V142.331ZM187.039 139.894H185.443C185.443 137.379 187.838 137.528 187.838 135.937C187.835 135.517 187.665 135.116 187.366 134.821C187.067 134.526 186.663 134.362 186.242 134.364C185.82 134.373 185.417 134.544 185.119 134.843C184.821 135.142 184.652 135.545 184.646 135.966H183.05C183.068 135.136 183.411 134.346 184.005 133.764C184.599 133.182 185.397 132.855 186.229 132.852C187.061 132.849 187.861 133.17 188.46 133.747C189.058 134.324 189.407 135.112 189.432 135.942C189.441 137.925 187.048 138.152 187.048 139.894H187.039Z" fill="#06BEA6"/>
</g>
<defs>
<linearGradient id="paint0_linear" x1="156.952" y1="186.937" x2="156.952" y2="81.6229" gradientUnits="userSpaceOnUse">
<stop stop-color="#808080" stop-opacity="0.25"/>
<stop offset="0.54" stop-color="#808080" stop-opacity="0.12"/>
<stop offset="1" stop-color="#808080" stop-opacity="0.1"/>
</linearGradient>
<clipPath id="clip0">
<rect width="226" height="188" fill="white"/>
</clipPath>
</defs>
</svg>
